<mxfile host="Electron" modified="2024-12-29T18:06:51.725Z" agent="Mozilla/5.0 (Windows NT 10.0; Win64; x64) AppleWebKit/537.36 (KHTML, like Gecko) draw.io/22.1.15 Chrome/120.0.6099.109 Electron/28.1.0 Safari/537.36" etag="njZVR07ATbQCBmd_STui" version="22.1.15" type="device">
  <diagram name="Page-1" id="8pGd5tdqfuOvG4j3ZwZp">
    <mxGraphModel dx="5043" dy="1940" grid="1" gridSize="10" guides="1" tooltips="1" connect="1" arrows="1" fold="1" page="1" pageScale="1" pageWidth="850" pageHeight="1100" math="0" shadow="0">
      <root>
        <mxCell id="0" />
        <mxCell id="1" parent="0" />
        <mxCell id="B0UtHPyn-rio5vPZapoj-1" style="edgeStyle=orthogonalEdgeStyle;rounded=0;orthogonalLoop=1;jettySize=auto;html=1;exitX=0.14;exitY=0.999;exitDx=0;exitDy=0;endArrow=none;endFill=0;fontSize=16;exitPerimeter=0;" parent="1" source="B0UtHPyn-rio5vPZapoj-4" target="B0UtHPyn-rio5vPZapoj-7" edge="1">
          <mxGeometry relative="1" as="geometry">
            <mxPoint x="-1560" y="859.5" as="targetPoint" />
            <Array as="points">
              <mxPoint x="-1603" y="960" />
              <mxPoint x="-1778" y="960" />
            </Array>
          </mxGeometry>
        </mxCell>
        <mxCell id="B0UtHPyn-rio5vPZapoj-3" style="edgeStyle=orthogonalEdgeStyle;rounded=0;orthogonalLoop=1;jettySize=auto;html=1;entryX=1;entryY=0.5;entryDx=0;entryDy=0;exitX=0.5;exitY=1;exitDx=0;exitDy=0;endArrow=none;endFill=0;fontSize=16;" parent="1" source="B0UtHPyn-rio5vPZapoj-4" target="B0UtHPyn-rio5vPZapoj-6" edge="1">
          <mxGeometry relative="1" as="geometry">
            <mxPoint x="-1506" y="910.5" as="sourcePoint" />
            <Array as="points">
              <mxPoint x="-1583" y="970" />
              <mxPoint x="-1690" y="970" />
              <mxPoint x="-1690" y="1208" />
            </Array>
          </mxGeometry>
        </mxCell>
        <mxCell id="B0UtHPyn-rio5vPZapoj-19" style="edgeStyle=orthogonalEdgeStyle;rounded=0;orthogonalLoop=1;jettySize=auto;html=1;entryX=0;entryY=0.5;entryDx=0;entryDy=0;endArrow=none;endFill=0;fontSize=16;" parent="1" source="B0UtHPyn-rio5vPZapoj-4" target="B0UtHPyn-rio5vPZapoj-13" edge="1">
          <mxGeometry relative="1" as="geometry">
            <Array as="points">
              <mxPoint x="-1398" y="908" />
              <mxPoint x="-1398" y="951" />
            </Array>
          </mxGeometry>
        </mxCell>
        <mxCell id="B0UtHPyn-rio5vPZapoj-21" style="edgeStyle=orthogonalEdgeStyle;rounded=0;orthogonalLoop=1;jettySize=auto;html=1;entryX=0;entryY=0.5;entryDx=0;entryDy=0;exitX=1;exitY=0.5;exitDx=0;exitDy=0;endArrow=none;endFill=0;fontSize=16;" parent="1" target="B0UtHPyn-rio5vPZapoj-17" edge="1">
          <mxGeometry relative="1" as="geometry">
            <mxPoint x="-1517" y="922.4999999999999" as="sourcePoint" />
            <mxPoint x="-1408" y="969.5" as="targetPoint" />
            <Array as="points">
              <mxPoint x="-1418" y="923" />
              <mxPoint x="-1418" y="1008" />
              <mxPoint x="-1368" y="1008" />
            </Array>
          </mxGeometry>
        </mxCell>
        <mxCell id="B0UtHPyn-rio5vPZapoj-27" style="edgeStyle=orthogonalEdgeStyle;rounded=0;orthogonalLoop=1;jettySize=auto;html=1;entryX=0;entryY=0.5;entryDx=0;entryDy=0;endArrow=none;endFill=0;exitX=0.75;exitY=1;exitDx=0;exitDy=0;fontSize=16;" parent="1" source="B0UtHPyn-rio5vPZapoj-4" target="B0UtHPyn-rio5vPZapoj-25" edge="1">
          <mxGeometry relative="1" as="geometry">
            <Array as="points">
              <mxPoint x="-1542" y="957.5" />
              <mxPoint x="-1488" y="957.5" />
              <mxPoint x="-1488" y="1067.5" />
              <mxPoint x="-1418" y="1067.5" />
              <mxPoint x="-1418" y="1137.5" />
            </Array>
          </mxGeometry>
        </mxCell>
        <mxCell id="B0UtHPyn-rio5vPZapoj-166" style="edgeStyle=orthogonalEdgeStyle;rounded=0;orthogonalLoop=1;jettySize=auto;html=1;entryX=1;entryY=0.5;entryDx=0;entryDy=0;endArrow=none;endFill=0;fontSize=16;" parent="1" source="B0UtHPyn-rio5vPZapoj-4" target="B0UtHPyn-rio5vPZapoj-14" edge="1">
          <mxGeometry relative="1" as="geometry">
            <Array as="points">
              <mxPoint x="-1870" y="930" />
              <mxPoint x="-1870" y="948" />
            </Array>
          </mxGeometry>
        </mxCell>
        <mxCell id="B0UtHPyn-rio5vPZapoj-4" value="Patient" style="whiteSpace=wrap;html=1;align=center;fontSize=16;fillColor=#CCEFBD;" parent="1" vertex="1">
          <mxGeometry x="-1650" y="900.5" width="133" height="40" as="geometry" />
        </mxCell>
        <mxCell id="B0UtHPyn-rio5vPZapoj-163" style="edgeStyle=orthogonalEdgeStyle;rounded=0;orthogonalLoop=1;jettySize=auto;html=1;entryX=1;entryY=0.5;entryDx=0;entryDy=0;endArrow=none;endFill=0;fontSize=16;" parent="1" source="B0UtHPyn-rio5vPZapoj-5" target="B0UtHPyn-rio5vPZapoj-8" edge="1">
          <mxGeometry relative="1" as="geometry">
            <Array as="points">
              <mxPoint x="-1850" y="1008" />
              <mxPoint x="-1920" y="1008" />
            </Array>
          </mxGeometry>
        </mxCell>
        <mxCell id="B0UtHPyn-rio5vPZapoj-164" style="edgeStyle=orthogonalEdgeStyle;rounded=0;orthogonalLoop=1;jettySize=auto;html=1;entryX=1;entryY=0.5;entryDx=0;entryDy=0;endArrow=none;endFill=0;fontSize=16;" parent="1" source="B0UtHPyn-rio5vPZapoj-5" target="B0UtHPyn-rio5vPZapoj-9" edge="1">
          <mxGeometry relative="1" as="geometry">
            <Array as="points">
              <mxPoint x="-1850" y="1086" />
            </Array>
          </mxGeometry>
        </mxCell>
        <mxCell id="B0UtHPyn-rio5vPZapoj-5" value="Name" style="ellipse;whiteSpace=wrap;html=1;align=center;fontSize=16;fillColor=#FFF2CC;" parent="1" vertex="1">
          <mxGeometry x="-1900" y="1026" width="100" height="40" as="geometry" />
        </mxCell>
        <mxCell id="B0UtHPyn-rio5vPZapoj-245" style="edgeStyle=orthogonalEdgeStyle;rounded=0;orthogonalLoop=1;jettySize=auto;html=1;exitX=0;exitY=0.5;exitDx=0;exitDy=0;entryX=1;entryY=0.5;entryDx=0;entryDy=0;endArrow=none;endFill=0;fontSize=16;" parent="1" source="B0UtHPyn-rio5vPZapoj-6" target="B0UtHPyn-rio5vPZapoj-12" edge="1">
          <mxGeometry relative="1" as="geometry" />
        </mxCell>
        <mxCell id="B0UtHPyn-rio5vPZapoj-246" style="edgeStyle=orthogonalEdgeStyle;rounded=0;orthogonalLoop=1;jettySize=auto;html=1;entryX=1;entryY=0.5;entryDx=0;entryDy=0;exitX=0.5;exitY=1;exitDx=0;exitDy=0;endArrow=none;endFill=0;fontSize=16;" parent="1" source="B0UtHPyn-rio5vPZapoj-6" target="B0UtHPyn-rio5vPZapoj-11" edge="1">
          <mxGeometry relative="1" as="geometry" />
        </mxCell>
        <mxCell id="B0UtHPyn-rio5vPZapoj-6" value="Address" style="ellipse;whiteSpace=wrap;html=1;align=center;fontSize=16;fillColor=#FFF2CC;" parent="1" vertex="1">
          <mxGeometry x="-1806" y="1188" width="100" height="40" as="geometry" />
        </mxCell>
        <mxCell id="B0UtHPyn-rio5vPZapoj-7" value="ID" style="ellipse;whiteSpace=wrap;html=1;align=center;fontStyle=4;fontSize=16;fillColor=#FFF2CC;" parent="1" vertex="1">
          <mxGeometry x="-1828" y="1070" width="100" height="40" as="geometry" />
        </mxCell>
        <mxCell id="B0UtHPyn-rio5vPZapoj-8" value="FName" style="ellipse;whiteSpace=wrap;html=1;align=center;fontSize=16;fillColor=#FFF2CC;" parent="1" vertex="1">
          <mxGeometry x="-2020" y="987.5" width="100" height="40" as="geometry" />
        </mxCell>
        <mxCell id="B0UtHPyn-rio5vPZapoj-9" value="LName" style="ellipse;whiteSpace=wrap;html=1;align=center;fontSize=16;fillColor=#FFF2CC;" parent="1" vertex="1">
          <mxGeometry x="-2020" y="1066" width="100" height="40" as="geometry" />
        </mxCell>
        <mxCell id="B0UtHPyn-rio5vPZapoj-244" style="edgeStyle=orthogonalEdgeStyle;rounded=0;orthogonalLoop=1;jettySize=auto;html=1;entryX=0.5;entryY=0;entryDx=0;entryDy=0;endArrow=none;endFill=0;fontSize=16;" parent="1" source="B0UtHPyn-rio5vPZapoj-10" target="B0UtHPyn-rio5vPZapoj-6" edge="1">
          <mxGeometry relative="1" as="geometry" />
        </mxCell>
        <mxCell id="B0UtHPyn-rio5vPZapoj-10" value="Street" style="ellipse;whiteSpace=wrap;html=1;align=center;fontSize=16;fillColor=#FFF2CC;" parent="1" vertex="1">
          <mxGeometry x="-1940" y="1127.5" width="100" height="40" as="geometry" />
        </mxCell>
        <mxCell id="B0UtHPyn-rio5vPZapoj-11" value="City" style="ellipse;whiteSpace=wrap;html=1;align=center;fontSize=16;fillColor=#FFF2CC;" parent="1" vertex="1">
          <mxGeometry x="-1950" y="1250" width="100" height="40" as="geometry" />
        </mxCell>
        <mxCell id="B0UtHPyn-rio5vPZapoj-12" value="State" style="ellipse;whiteSpace=wrap;html=1;align=center;fontSize=16;fillColor=#FFF2CC;" parent="1" vertex="1">
          <mxGeometry x="-1940" y="1188" width="100" height="40" as="geometry" />
        </mxCell>
        <mxCell id="B0UtHPyn-rio5vPZapoj-13" value="DOB" style="ellipse;whiteSpace=wrap;html=1;align=center;fontSize=16;fillColor=#FFF2CC;" parent="1" vertex="1">
          <mxGeometry x="-1325" y="930.5" width="100" height="40" as="geometry" />
        </mxCell>
        <mxCell id="B0UtHPyn-rio5vPZapoj-14" value="Gender" style="ellipse;whiteSpace=wrap;html=1;align=center;fontSize=16;fillColor=#FFF2CC;" parent="1" vertex="1">
          <mxGeometry x="-2010" y="927.5" width="100" height="40" as="geometry" />
        </mxCell>
        <mxCell id="B0UtHPyn-rio5vPZapoj-17" value="Phone" style="ellipse;whiteSpace=wrap;html=1;align=center;fontSize=16;fillColor=#FFF2CC;" parent="1" vertex="1">
          <mxGeometry x="-1325" y="989" width="100" height="40" as="geometry" />
        </mxCell>
        <mxCell id="B0UtHPyn-rio5vPZapoj-37" style="edgeStyle=orthogonalEdgeStyle;rounded=0;orthogonalLoop=1;jettySize=auto;html=1;entryX=0;entryY=0.5;entryDx=0;entryDy=0;exitX=0.5;exitY=0;exitDx=0;exitDy=0;endArrow=none;endFill=0;fontSize=16;" parent="1" source="B0UtHPyn-rio5vPZapoj-23" target="B0UtHPyn-rio5vPZapoj-243" edge="1">
          <mxGeometry relative="1" as="geometry" />
        </mxCell>
        <mxCell id="lx9NzaWwOEV7F9frWTD8-24" style="edgeStyle=orthogonalEdgeStyle;rounded=0;orthogonalLoop=1;jettySize=auto;html=1;entryX=0;entryY=0.5;entryDx=0;entryDy=0;endArrow=none;endFill=0;exitX=0.75;exitY=1;exitDx=0;exitDy=0;" parent="1" source="B0UtHPyn-rio5vPZapoj-23" target="lx9NzaWwOEV7F9frWTD8-12" edge="1">
          <mxGeometry relative="1" as="geometry">
            <Array as="points">
              <mxPoint x="-1602" y="1295" />
            </Array>
          </mxGeometry>
        </mxCell>
        <mxCell id="B0UtHPyn-rio5vPZapoj-23" value="InPatient" style="whiteSpace=wrap;html=1;align=center;fontSize=16;fillColor=#CCEFBD;" parent="1" vertex="1">
          <mxGeometry x="-1677" y="1127.5" width="100" height="40" as="geometry" />
        </mxCell>
        <mxCell id="B0UtHPyn-rio5vPZapoj-38" style="edgeStyle=orthogonalEdgeStyle;rounded=0;orthogonalLoop=1;jettySize=auto;html=1;entryX=1;entryY=0.5;entryDx=0;entryDy=0;exitX=0.5;exitY=0;exitDx=0;exitDy=0;endArrow=none;endFill=0;fontSize=16;" parent="1" source="B0UtHPyn-rio5vPZapoj-24" target="B0UtHPyn-rio5vPZapoj-243" edge="1">
          <mxGeometry relative="1" as="geometry">
            <Array as="points">
              <mxPoint x="-1500" y="1128" />
              <mxPoint x="-1500" y="1024" />
            </Array>
          </mxGeometry>
        </mxCell>
        <mxCell id="B0UtHPyn-rio5vPZapoj-24" value="OutPatient" style="whiteSpace=wrap;html=1;align=center;fontSize=16;fillColor=#CCEFBD;" parent="1" vertex="1">
          <mxGeometry x="-1547" y="1127.5" width="100" height="40" as="geometry" />
        </mxCell>
        <mxCell id="B0UtHPyn-rio5vPZapoj-25" value="PType" style="ellipse;whiteSpace=wrap;html=1;align=center;fontSize=16;fillColor=#FFF2CC;" parent="1" vertex="1">
          <mxGeometry x="-1325" y="1046" width="105" height="40" as="geometry" />
        </mxCell>
        <mxCell id="B0UtHPyn-rio5vPZapoj-36" value="" style="shape=link;html=1;rounded=0;exitX=0.614;exitY=1.011;exitDx=0;exitDy=0;fontSize=16;exitPerimeter=0;" parent="1" source="B0UtHPyn-rio5vPZapoj-4" target="B0UtHPyn-rio5vPZapoj-243" edge="1">
          <mxGeometry width="100" relative="1" as="geometry">
            <mxPoint x="-1529" y="976.5" as="sourcePoint" />
            <mxPoint x="-1567" y="967.5" as="targetPoint" />
          </mxGeometry>
        </mxCell>
        <mxCell id="B0UtHPyn-rio5vPZapoj-45" style="edgeStyle=orthogonalEdgeStyle;rounded=0;orthogonalLoop=1;jettySize=auto;html=1;exitX=0.65;exitY=0.053;exitDx=0;exitDy=0;endArrow=none;endFill=0;fontSize=16;exitPerimeter=0;entryX=0.5;entryY=1;entryDx=0;entryDy=0;" parent="1" source="B0UtHPyn-rio5vPZapoj-47" target="B0UtHPyn-rio5vPZapoj-49" edge="1">
          <mxGeometry relative="1" as="geometry">
            <mxPoint x="-2495" y="1044" as="targetPoint" />
          </mxGeometry>
        </mxCell>
        <mxCell id="B0UtHPyn-rio5vPZapoj-46" style="edgeStyle=orthogonalEdgeStyle;rounded=0;orthogonalLoop=1;jettySize=auto;html=1;entryX=0.5;entryY=1;entryDx=0;entryDy=0;endArrow=none;endFill=0;exitX=0.25;exitY=0;exitDx=0;exitDy=0;fontSize=16;" parent="1" source="B0UtHPyn-rio5vPZapoj-47" target="B0UtHPyn-rio5vPZapoj-48" edge="1">
          <mxGeometry relative="1" as="geometry">
            <mxPoint x="-2557" y="1087" as="sourcePoint" />
            <Array as="points">
              <mxPoint x="-2576" y="1087" />
              <mxPoint x="-2576" y="1067" />
              <mxPoint x="-2615" y="1067" />
            </Array>
          </mxGeometry>
        </mxCell>
        <mxCell id="B0UtHPyn-rio5vPZapoj-144" style="edgeStyle=orthogonalEdgeStyle;rounded=0;orthogonalLoop=1;jettySize=auto;html=1;entryX=0.5;entryY=1;entryDx=0;entryDy=0;endArrow=none;endFill=0;fontSize=16;" parent="1" source="B0UtHPyn-rio5vPZapoj-47" target="B0UtHPyn-rio5vPZapoj-143" edge="1">
          <mxGeometry relative="1" as="geometry">
            <Array as="points">
              <mxPoint x="-2556" y="1042" />
            </Array>
          </mxGeometry>
        </mxCell>
        <mxCell id="B0UtHPyn-rio5vPZapoj-47" value="Room" style="whiteSpace=wrap;html=1;align=center;fontSize=16;fillColor=#CCEFBD;" parent="1" vertex="1">
          <mxGeometry x="-2594" y="1087" width="100" height="40" as="geometry" />
        </mxCell>
        <mxCell id="B0UtHPyn-rio5vPZapoj-48" value="MaxCapcity" style="ellipse;whiteSpace=wrap;html=1;align=center;fontSize=16;fillColor=#FFF2CC;" parent="1" vertex="1">
          <mxGeometry x="-2665" y="1004" width="100" height="40" as="geometry" />
        </mxCell>
        <mxCell id="B0UtHPyn-rio5vPZapoj-49" value="Num" style="ellipse;whiteSpace=wrap;html=1;align=center;fontStyle=4;fontSize=16;fillColor=#FFF2CC;" parent="1" vertex="1">
          <mxGeometry x="-2520" y="1004" width="100" height="40" as="geometry" />
        </mxCell>
        <mxCell id="B0UtHPyn-rio5vPZapoj-50" style="edgeStyle=orthogonalEdgeStyle;rounded=0;orthogonalLoop=1;jettySize=auto;html=1;exitX=0.587;exitY=0.024;exitDx=0;exitDy=0;endArrow=none;endFill=0;fontSize=16;exitPerimeter=0;" parent="1" source="B0UtHPyn-rio5vPZapoj-52" target="B0UtHPyn-rio5vPZapoj-54" edge="1">
          <mxGeometry relative="1" as="geometry">
            <mxPoint x="-912" y="872" as="targetPoint" />
          </mxGeometry>
        </mxCell>
        <mxCell id="B0UtHPyn-rio5vPZapoj-51" style="edgeStyle=orthogonalEdgeStyle;rounded=0;orthogonalLoop=1;jettySize=auto;html=1;entryX=0.5;entryY=1;entryDx=0;entryDy=0;endArrow=none;endFill=0;fontSize=16;" parent="1" target="B0UtHPyn-rio5vPZapoj-53" edge="1">
          <mxGeometry relative="1" as="geometry">
            <mxPoint x="-932" y="913" as="sourcePoint" />
            <Array as="points">
              <mxPoint x="-932" y="893" />
              <mxPoint x="-990" y="893" />
            </Array>
          </mxGeometry>
        </mxCell>
        <mxCell id="B0UtHPyn-rio5vPZapoj-56" style="edgeStyle=orthogonalEdgeStyle;rounded=0;orthogonalLoop=1;jettySize=auto;html=1;entryX=0.5;entryY=1;entryDx=0;entryDy=0;endArrow=none;endFill=0;fontSize=16;" parent="1" source="B0UtHPyn-rio5vPZapoj-52" target="B0UtHPyn-rio5vPZapoj-55" edge="1">
          <mxGeometry relative="1" as="geometry">
            <Array as="points">
              <mxPoint x="-921" y="871" />
              <mxPoint x="-930" y="871" />
            </Array>
          </mxGeometry>
        </mxCell>
        <mxCell id="B0UtHPyn-rio5vPZapoj-52" value="Bill" style="whiteSpace=wrap;html=1;align=center;fontSize=16;fillColor=#CCEFBD;" parent="1" vertex="1">
          <mxGeometry x="-969" y="913" width="100" height="40" as="geometry" />
        </mxCell>
        <mxCell id="B0UtHPyn-rio5vPZapoj-53" value="Amount" style="ellipse;whiteSpace=wrap;html=1;align=center;fontSize=16;fillColor=#FFF2CC;" parent="1" vertex="1">
          <mxGeometry x="-1040" y="830" width="100" height="40" as="geometry" />
        </mxCell>
        <mxCell id="B0UtHPyn-rio5vPZapoj-54" value="ID" style="ellipse;whiteSpace=wrap;html=1;align=center;fontStyle=4;fontSize=16;fillColor=#FFF2CC;" parent="1" vertex="1">
          <mxGeometry x="-920" y="830" width="100" height="40" as="geometry" />
        </mxCell>
        <mxCell id="B0UtHPyn-rio5vPZapoj-55" value="Date" style="ellipse;whiteSpace=wrap;html=1;align=center;fontSize=16;fillColor=#FFF2CC;" parent="1" vertex="1">
          <mxGeometry x="-980" y="790" width="100" height="40" as="geometry" />
        </mxCell>
        <mxCell id="B0UtHPyn-rio5vPZapoj-64" style="edgeStyle=orthogonalEdgeStyle;rounded=0;orthogonalLoop=1;jettySize=auto;html=1;exitX=0.5;exitY=0;exitDx=0;exitDy=0;endArrow=none;endFill=0;fontSize=16;" parent="1" source="B0UtHPyn-rio5vPZapoj-66" target="B0UtHPyn-rio5vPZapoj-68" edge="1">
          <mxGeometry relative="1" as="geometry">
            <mxPoint x="-2010" y="507" as="targetPoint" />
          </mxGeometry>
        </mxCell>
        <mxCell id="B0UtHPyn-rio5vPZapoj-65" style="edgeStyle=orthogonalEdgeStyle;rounded=0;orthogonalLoop=1;jettySize=auto;html=1;entryX=0.5;entryY=1;entryDx=0;entryDy=0;endArrow=none;endFill=0;fontSize=16;" parent="1" target="B0UtHPyn-rio5vPZapoj-67" edge="1">
          <mxGeometry relative="1" as="geometry">
            <mxPoint x="-2030" y="548" as="sourcePoint" />
            <Array as="points">
              <mxPoint x="-2030" y="528" />
              <mxPoint x="-2088" y="528" />
            </Array>
          </mxGeometry>
        </mxCell>
        <mxCell id="B0UtHPyn-rio5vPZapoj-66" value="Prescription" style="whiteSpace=wrap;html=1;align=center;fontSize=16;fillColor=#CCEFBD;" parent="1" vertex="1">
          <mxGeometry x="-2067" y="548" width="100" height="40" as="geometry" />
        </mxCell>
        <mxCell id="B0UtHPyn-rio5vPZapoj-67" value="Description" style="ellipse;whiteSpace=wrap;html=1;align=center;fontSize=16;fillColor=#FFF2CC;" parent="1" vertex="1">
          <mxGeometry x="-2138" y="465" width="100" height="40" as="geometry" />
        </mxCell>
        <mxCell id="B0UtHPyn-rio5vPZapoj-68" value="ID" style="ellipse;whiteSpace=wrap;html=1;align=center;fontStyle=4;fontSize=16;fillColor=#FFF2CC;" parent="1" vertex="1">
          <mxGeometry x="-2018" y="465" width="100" height="40" as="geometry" />
        </mxCell>
        <mxCell id="B0UtHPyn-rio5vPZapoj-69" style="edgeStyle=orthogonalEdgeStyle;rounded=0;orthogonalLoop=1;jettySize=auto;html=1;exitX=0.75;exitY=0;exitDx=0;exitDy=0;endArrow=none;endFill=0;fontSize=16;" parent="1" source="B0UtHPyn-rio5vPZapoj-71" target="B0UtHPyn-rio5vPZapoj-73" edge="1">
          <mxGeometry relative="1" as="geometry">
            <mxPoint x="-2528" y="762" as="targetPoint" />
          </mxGeometry>
        </mxCell>
        <mxCell id="B0UtHPyn-rio5vPZapoj-70" style="edgeStyle=orthogonalEdgeStyle;rounded=0;orthogonalLoop=1;jettySize=auto;html=1;entryX=0.5;entryY=1;entryDx=0;entryDy=0;endArrow=none;endFill=0;fontSize=16;exitX=0.25;exitY=0;exitDx=0;exitDy=0;" parent="1" source="B0UtHPyn-rio5vPZapoj-71" target="B0UtHPyn-rio5vPZapoj-72" edge="1">
          <mxGeometry relative="1" as="geometry">
            <mxPoint x="-2570" y="800" as="sourcePoint" />
            <Array as="points">
              <mxPoint x="-2560" y="780" />
              <mxPoint x="-2615" y="780" />
            </Array>
          </mxGeometry>
        </mxCell>
        <mxCell id="B0UtHPyn-rio5vPZapoj-76" style="rounded=0;orthogonalLoop=1;jettySize=auto;html=1;entryX=0.5;entryY=1;entryDx=0;entryDy=0;exitX=0;exitY=0.5;exitDx=0;exitDy=0;edgeStyle=orthogonalEdgeStyle;endArrow=none;endFill=0;fontSize=16;" parent="1" source="B0UtHPyn-rio5vPZapoj-71" target="a8ZDs8WOiXL_vofYgv4g-2" edge="1">
          <mxGeometry relative="1" as="geometry">
            <mxPoint x="-2678" y="843" as="targetPoint" />
          </mxGeometry>
        </mxCell>
        <mxCell id="B0UtHPyn-rio5vPZapoj-190" style="edgeStyle=orthogonalEdgeStyle;rounded=0;orthogonalLoop=1;jettySize=auto;html=1;entryX=0;entryY=0.5;entryDx=0;entryDy=0;endArrow=none;endFill=0;fontSize=16;" parent="1" source="B0UtHPyn-rio5vPZapoj-71" target="B0UtHPyn-rio5vPZapoj-189" edge="1">
          <mxGeometry relative="1" as="geometry" />
        </mxCell>
        <mxCell id="B0UtHPyn-rio5vPZapoj-71" value="Drug" style="whiteSpace=wrap;html=1;align=center;fontSize=16;fillColor=#CCEFBD;" parent="1" vertex="1">
          <mxGeometry x="-2585" y="803" width="100" height="40" as="geometry" />
        </mxCell>
        <mxCell id="B0UtHPyn-rio5vPZapoj-72" value="RecDosage" style="ellipse;whiteSpace=wrap;html=1;align=center;fontSize=16;fillColor=#FFF2CC;" parent="1" vertex="1">
          <mxGeometry x="-2665" y="710" width="115" height="40" as="geometry" />
        </mxCell>
        <mxCell id="B0UtHPyn-rio5vPZapoj-73" value="Code" style="ellipse;whiteSpace=wrap;html=1;align=center;fontStyle=4;fontSize=16;fillColor=#FFF2CC;" parent="1" vertex="1">
          <mxGeometry x="-2485" y="710" width="100" height="40" as="geometry" />
        </mxCell>
        <mxCell id="B0UtHPyn-rio5vPZapoj-78" style="edgeStyle=orthogonalEdgeStyle;rounded=0;orthogonalLoop=1;jettySize=auto;html=1;exitX=0.865;exitY=0.009;exitDx=0;exitDy=0;endArrow=none;endFill=0;fontSize=16;exitPerimeter=0;entryX=0;entryY=0.5;entryDx=0;entryDy=0;" parent="1" source="B0UtHPyn-rio5vPZapoj-80" target="B0UtHPyn-rio5vPZapoj-82" edge="1">
          <mxGeometry relative="1" as="geometry">
            <mxPoint x="-2022" y="702" as="targetPoint" />
            <Array as="points">
              <mxPoint x="-1974" y="830" />
              <mxPoint x="-1900" y="830" />
              <mxPoint x="-1900" y="810" />
            </Array>
          </mxGeometry>
        </mxCell>
        <mxCell id="B0UtHPyn-rio5vPZapoj-79" style="edgeStyle=orthogonalEdgeStyle;rounded=0;orthogonalLoop=1;jettySize=auto;html=1;entryX=0.5;entryY=1;entryDx=0;entryDy=0;endArrow=none;endFill=0;exitX=0.646;exitY=0.009;exitDx=0;exitDy=0;fontSize=16;exitPerimeter=0;" parent="1" source="B0UtHPyn-rio5vPZapoj-80" target="B0UtHPyn-rio5vPZapoj-81" edge="1">
          <mxGeometry relative="1" as="geometry">
            <mxPoint x="-2042" y="743" as="sourcePoint" />
            <Array as="points">
              <mxPoint x="-1995" y="820" />
              <mxPoint x="-1928" y="820" />
            </Array>
          </mxGeometry>
        </mxCell>
        <mxCell id="6WzPSW7-0wgQ0Tm0oLC6-15" style="edgeStyle=orthogonalEdgeStyle;rounded=0;orthogonalLoop=1;jettySize=auto;html=1;entryX=0.5;entryY=1;entryDx=0;entryDy=0;endArrow=none;endFill=0;" parent="1" source="B0UtHPyn-rio5vPZapoj-80" target="6WzPSW7-0wgQ0Tm0oLC6-12" edge="1">
          <mxGeometry relative="1" as="geometry">
            <Array as="points">
              <mxPoint x="-2010" y="820" />
              <mxPoint x="-2041" y="820" />
            </Array>
          </mxGeometry>
        </mxCell>
        <mxCell id="6WzPSW7-0wgQ0Tm0oLC6-16" style="edgeStyle=orthogonalEdgeStyle;rounded=0;orthogonalLoop=1;jettySize=auto;html=1;entryX=1;entryY=0.5;entryDx=0;entryDy=0;exitX=0.25;exitY=0;exitDx=0;exitDy=0;endArrow=none;endFill=0;" parent="1" source="B0UtHPyn-rio5vPZapoj-80" target="6WzPSW7-0wgQ0Tm0oLC6-13" edge="1">
          <mxGeometry relative="1" as="geometry">
            <Array as="points">
              <mxPoint x="-2035" y="830" />
              <mxPoint x="-2070" y="830" />
              <mxPoint x="-2070" y="810" />
              <mxPoint x="-2099" y="810" />
            </Array>
          </mxGeometry>
        </mxCell>
        <mxCell id="B0UtHPyn-rio5vPZapoj-80" value="Report" style="whiteSpace=wrap;html=1;align=center;fontSize=16;fillColor=#CCEFBD;" parent="1" vertex="1">
          <mxGeometry x="-2060" y="847" width="100" height="40" as="geometry" />
        </mxCell>
        <mxCell id="B0UtHPyn-rio5vPZapoj-81" value="Disease" style="ellipse;whiteSpace=wrap;html=1;align=center;fontSize=16;fillColor=#FFF2CC;" parent="1" vertex="1">
          <mxGeometry x="-1982" y="760" width="100" height="40" as="geometry" />
        </mxCell>
        <mxCell id="B0UtHPyn-rio5vPZapoj-82" value="ID" style="ellipse;whiteSpace=wrap;html=1;align=center;fontStyle=4;fontSize=16;fillColor=#FFF2CC;" parent="1" vertex="1">
          <mxGeometry x="-1878" y="790" width="100" height="40" as="geometry" />
        </mxCell>
        <mxCell id="nTEsA57M8pN7EXXzLKuk-2" style="edgeStyle=orthogonalEdgeStyle;rounded=0;orthogonalLoop=1;jettySize=auto;html=1;entryX=0.5;entryY=1;entryDx=0;entryDy=0;exitX=0.869;exitY=0.008;exitDx=0;exitDy=0;exitPerimeter=0;endArrow=none;endFill=0;" edge="1" parent="1" source="B0UtHPyn-rio5vPZapoj-84" target="nTEsA57M8pN7EXXzLKuk-1">
          <mxGeometry relative="1" as="geometry">
            <Array as="points">
              <mxPoint x="-1499" y="150" />
              <mxPoint x="-1470" y="150" />
              <mxPoint x="-1470" y="40" />
              <mxPoint x="-1381" y="40" />
            </Array>
          </mxGeometry>
        </mxCell>
        <mxCell id="B0UtHPyn-rio5vPZapoj-84" value="Employee" style="whiteSpace=wrap;html=1;align=center;fontSize=16;fillColor=#CCEFBD;" parent="1" vertex="1">
          <mxGeometry x="-1586" y="167" width="100" height="40" as="geometry" />
        </mxCell>
        <mxCell id="B0UtHPyn-rio5vPZapoj-191" style="edgeStyle=orthogonalEdgeStyle;rounded=0;orthogonalLoop=1;jettySize=auto;html=1;endArrow=none;endFill=0;exitX=0;exitY=0.75;exitDx=0;exitDy=0;entryX=0.5;entryY=0;entryDx=0;entryDy=0;fontSize=16;" parent="1" target="B0UtHPyn-rio5vPZapoj-189" edge="1">
          <mxGeometry relative="1" as="geometry">
            <mxPoint x="-1856" y="381" as="sourcePoint" />
            <mxPoint x="-2363" y="798" as="targetPoint" />
          </mxGeometry>
        </mxCell>
        <mxCell id="B0UtHPyn-rio5vPZapoj-85" value="Nurse" style="whiteSpace=wrap;html=1;align=center;fontSize=16;fillColor=#CCEFBD;" parent="1" vertex="1">
          <mxGeometry x="-1856" y="350" width="100" height="40" as="geometry" />
        </mxCell>
        <mxCell id="lx9NzaWwOEV7F9frWTD8-27" style="edgeStyle=orthogonalEdgeStyle;rounded=0;orthogonalLoop=1;jettySize=auto;html=1;entryX=1;entryY=0.5;entryDx=0;entryDy=0;exitX=0.75;exitY=0;exitDx=0;exitDy=0;endArrow=none;endFill=0;" parent="1" source="B0UtHPyn-rio5vPZapoj-86" target="lx9NzaWwOEV7F9frWTD8-12" edge="1">
          <mxGeometry relative="1" as="geometry">
            <Array as="points">
              <mxPoint x="-1511" y="310" />
              <mxPoint x="-630" y="310" />
              <mxPoint x="-630" y="1295" />
            </Array>
          </mxGeometry>
        </mxCell>
        <mxCell id="B0UtHPyn-rio5vPZapoj-86" value="Doctor" style="whiteSpace=wrap;html=1;align=center;fontSize=16;fillColor=#CCEFBD;" parent="1" vertex="1">
          <mxGeometry x="-1586" y="350" width="100" height="40" as="geometry" />
        </mxCell>
        <mxCell id="B0UtHPyn-rio5vPZapoj-87" value="Receptionist" style="whiteSpace=wrap;html=1;align=center;fontSize=16;fillColor=#CCEFBD;" parent="1" vertex="1">
          <mxGeometry x="-1431" y="361" width="100" height="40" as="geometry" />
        </mxCell>
        <mxCell id="B0UtHPyn-rio5vPZapoj-88" value="d" style="ellipse;whiteSpace=wrap;html=1;aspect=fixed;fontSize=16;fillColor=#F2C18C;" parent="1" vertex="1">
          <mxGeometry x="-1551" y="242" width="30" height="30" as="geometry" />
        </mxCell>
        <mxCell id="B0UtHPyn-rio5vPZapoj-89" value="" style="endArrow=none;html=1;rounded=0;entryX=0.5;entryY=1;entryDx=0;entryDy=0;exitX=0.5;exitY=0;exitDx=0;exitDy=0;fontSize=16;" parent="1" source="B0UtHPyn-rio5vPZapoj-88" target="B0UtHPyn-rio5vPZapoj-84" edge="1">
          <mxGeometry width="50" height="50" relative="1" as="geometry">
            <mxPoint x="-1536" y="262" as="sourcePoint" />
            <mxPoint x="-1486" y="212" as="targetPoint" />
          </mxGeometry>
        </mxCell>
        <mxCell id="B0UtHPyn-rio5vPZapoj-90" value="" style="endArrow=none;html=1;rounded=0;exitX=0.5;exitY=0;exitDx=0;exitDy=0;entryX=0;entryY=0.5;entryDx=0;entryDy=0;fontSize=16;" parent="1" source="B0UtHPyn-rio5vPZapoj-85" target="B0UtHPyn-rio5vPZapoj-88" edge="1">
          <mxGeometry width="50" height="50" relative="1" as="geometry">
            <mxPoint x="-1601" y="327" as="sourcePoint" />
            <mxPoint x="-1551" y="277" as="targetPoint" />
          </mxGeometry>
        </mxCell>
        <mxCell id="B0UtHPyn-rio5vPZapoj-91" value="" style="endArrow=none;html=1;rounded=0;exitX=0.5;exitY=0;exitDx=0;exitDy=0;entryX=0.5;entryY=1;entryDx=0;entryDy=0;fontSize=16;" parent="1" source="B0UtHPyn-rio5vPZapoj-86" target="B0UtHPyn-rio5vPZapoj-88" edge="1">
          <mxGeometry width="50" height="50" relative="1" as="geometry">
            <mxPoint x="-1666" y="312" as="sourcePoint" />
            <mxPoint x="-1541" y="267" as="targetPoint" />
          </mxGeometry>
        </mxCell>
        <mxCell id="B0UtHPyn-rio5vPZapoj-92" value="" style="endArrow=none;html=1;rounded=0;exitX=1;exitY=0.5;exitDx=0;exitDy=0;entryX=0.5;entryY=0;entryDx=0;entryDy=0;fontSize=16;" parent="1" source="B0UtHPyn-rio5vPZapoj-88" target="B0UtHPyn-rio5vPZapoj-87" edge="1">
          <mxGeometry width="50" height="50" relative="1" as="geometry">
            <mxPoint x="-1438.5" y="267" as="sourcePoint" />
            <mxPoint x="-1313.5" y="222" as="targetPoint" />
          </mxGeometry>
        </mxCell>
        <mxCell id="B0UtHPyn-rio5vPZapoj-99" value="Department" style="whiteSpace=wrap;html=1;align=center;fontSize=16;fillColor=#CCEFBD;" parent="1" vertex="1">
          <mxGeometry x="-2151" y="174" width="100" height="40" as="geometry" />
        </mxCell>
        <mxCell id="B0UtHPyn-rio5vPZapoj-100" value="Works" style="shape=rhombus;perimeter=rhombusPerimeter;whiteSpace=wrap;html=1;align=center;fontSize=16;fillColor=#F2C18C;" parent="1" vertex="1">
          <mxGeometry x="-1856" y="166" width="100" height="50" as="geometry" />
        </mxCell>
        <mxCell id="B0UtHPyn-rio5vPZapoj-101" value="" style="endArrow=none;html=1;rounded=0;entryX=0;entryY=0.5;entryDx=0;entryDy=0;exitX=1;exitY=0.5;exitDx=0;exitDy=0;fontSize=16;" parent="1" source="B0UtHPyn-rio5vPZapoj-99" target="B0UtHPyn-rio5vPZapoj-100" edge="1">
          <mxGeometry relative="1" as="geometry">
            <mxPoint x="-1984" y="205.5" as="sourcePoint" />
            <mxPoint x="-1856" y="196" as="targetPoint" />
          </mxGeometry>
        </mxCell>
        <mxCell id="B0UtHPyn-rio5vPZapoj-103" value="" style="shape=link;html=1;rounded=0;entryX=0;entryY=0.5;entryDx=0;entryDy=0;exitX=1;exitY=0.5;exitDx=0;exitDy=0;fontSize=16;" parent="1" source="B0UtHPyn-rio5vPZapoj-100" target="B0UtHPyn-rio5vPZapoj-84" edge="1">
          <mxGeometry relative="1" as="geometry">
            <mxPoint x="-1686" y="172" as="sourcePoint" />
            <mxPoint x="-1596" y="172" as="targetPoint" />
          </mxGeometry>
        </mxCell>
        <mxCell id="B0UtHPyn-rio5vPZapoj-105" value="" style="endArrow=none;html=1;rounded=0;exitX=0.5;exitY=1;exitDx=0;exitDy=0;entryX=0.5;entryY=0;entryDx=0;entryDy=0;edgeStyle=orthogonalEdgeStyle;fontSize=16;" parent="1" source="B0UtHPyn-rio5vPZapoj-108" target="B0UtHPyn-rio5vPZapoj-99" edge="1">
          <mxGeometry relative="1" as="geometry">
            <mxPoint x="-2226" y="149" as="sourcePoint" />
            <mxPoint x="-1911" y="109" as="targetPoint" />
          </mxGeometry>
        </mxCell>
        <mxCell id="B0UtHPyn-rio5vPZapoj-106" value="Name" style="ellipse;whiteSpace=wrap;html=1;align=center;fontSize=16;fillColor=#FFF2CC;strokeColor=#000000;" parent="1" vertex="1">
          <mxGeometry x="-2091" y="109" width="90" height="40" as="geometry" />
        </mxCell>
        <mxCell id="B0UtHPyn-rio5vPZapoj-107" value="" style="endArrow=none;html=1;rounded=0;exitX=0.5;exitY=1;exitDx=0;exitDy=0;entryX=0.75;entryY=0;entryDx=0;entryDy=0;edgeStyle=orthogonalEdgeStyle;fontSize=16;" parent="1" source="B0UtHPyn-rio5vPZapoj-106" target="B0UtHPyn-rio5vPZapoj-99" edge="1">
          <mxGeometry relative="1" as="geometry">
            <mxPoint x="-2126" y="149" as="sourcePoint" />
            <mxPoint x="-2091" y="184" as="targetPoint" />
          </mxGeometry>
        </mxCell>
        <mxCell id="B0UtHPyn-rio5vPZapoj-108" value="ID" style="ellipse;whiteSpace=wrap;html=1;align=center;fontStyle=4;fontSize=16;fillColor=#FFF2CC;strokeColor=#000000;" parent="1" vertex="1">
          <mxGeometry x="-2185" y="109" width="90" height="40" as="geometry" />
        </mxCell>
        <mxCell id="B0UtHPyn-rio5vPZapoj-109" value="Name" style="ellipse;whiteSpace=wrap;html=1;align=center;fontSize=16;fillColor=#FFF2CC;strokeColor=#000000;" parent="1" vertex="1">
          <mxGeometry x="-1690" y="49" width="90" height="40" as="geometry" />
        </mxCell>
        <mxCell id="B0UtHPyn-rio5vPZapoj-110" value="ID" style="ellipse;whiteSpace=wrap;html=1;align=center;fontStyle=4;fontSize=16;fillColor=#FFF2CC;strokeColor=#000000;" parent="1" vertex="1">
          <mxGeometry x="-1790" y="62" width="90" height="40" as="geometry" />
        </mxCell>
        <mxCell id="B0UtHPyn-rio5vPZapoj-111" value="" style="endArrow=none;html=1;rounded=0;exitX=0.5;exitY=1;exitDx=0;exitDy=0;entryX=0.25;entryY=0;entryDx=0;entryDy=0;edgeStyle=orthogonalEdgeStyle;fontSize=16;" parent="1" source="B0UtHPyn-rio5vPZapoj-110" target="B0UtHPyn-rio5vPZapoj-84" edge="1">
          <mxGeometry relative="1" as="geometry">
            <mxPoint x="-1626" y="132" as="sourcePoint" />
            <mxPoint x="-1551" y="157" as="targetPoint" />
          </mxGeometry>
        </mxCell>
        <mxCell id="B0UtHPyn-rio5vPZapoj-112" value="" style="endArrow=none;html=1;rounded=0;exitX=0.5;exitY=1;exitDx=0;exitDy=0;edgeStyle=orthogonalEdgeStyle;fontSize=16;" parent="1" source="B0UtHPyn-rio5vPZapoj-109" target="B0UtHPyn-rio5vPZapoj-84" edge="1">
          <mxGeometry relative="1" as="geometry">
            <mxPoint x="-1471" y="127" as="sourcePoint" />
            <mxPoint x="-1536" y="162" as="targetPoint" />
            <Array as="points">
              <mxPoint x="-1645" y="120" />
              <mxPoint x="-1536" y="120" />
            </Array>
          </mxGeometry>
        </mxCell>
        <mxCell id="B0UtHPyn-rio5vPZapoj-113" value="DOB" style="ellipse;whiteSpace=wrap;html=1;align=center;fontSize=16;labelBackgroundColor=none;fillColor=#FFF2CC;strokeColor=#000000;" parent="1" vertex="1">
          <mxGeometry x="-1586" y="42" width="90" height="40" as="geometry" />
        </mxCell>
        <mxCell id="B0UtHPyn-rio5vPZapoj-114" value="" style="endArrow=none;html=1;rounded=0;exitX=0.621;exitY=0.035;exitDx=0;exitDy=0;edgeStyle=orthogonalEdgeStyle;exitPerimeter=0;entryX=0.416;entryY=1.025;entryDx=0;entryDy=0;entryPerimeter=0;fontSize=16;" parent="1" source="B0UtHPyn-rio5vPZapoj-84" target="B0UtHPyn-rio5vPZapoj-113" edge="1">
          <mxGeometry relative="1" as="geometry">
            <mxPoint x="-1526" y="162" as="sourcePoint" />
            <mxPoint x="-1516" y="52" as="targetPoint" />
            <Array as="points">
              <mxPoint x="-1524" y="110" />
              <mxPoint x="-1549" y="110" />
            </Array>
          </mxGeometry>
        </mxCell>
        <mxCell id="B0UtHPyn-rio5vPZapoj-115" value="Fname" style="ellipse;whiteSpace=wrap;html=1;align=center;fontSize=16;fillColor=#FFF2CC;strokeColor=#000000;" parent="1" vertex="1">
          <mxGeometry x="-1780" y="-28" width="90" height="40" as="geometry" />
        </mxCell>
        <mxCell id="B0UtHPyn-rio5vPZapoj-116" value="Lname" style="ellipse;whiteSpace=wrap;html=1;align=center;fontSize=16;fillColor=#FFF2CC;strokeColor=#000000;" parent="1" vertex="1">
          <mxGeometry x="-1628.5" y="-28" width="90" height="40" as="geometry" />
        </mxCell>
        <mxCell id="B0UtHPyn-rio5vPZapoj-117" value="" style="endArrow=none;html=1;rounded=0;entryX=0.5;entryY=1;entryDx=0;entryDy=0;exitX=0.409;exitY=0.075;exitDx=0;exitDy=0;edgeStyle=orthogonalEdgeStyle;exitPerimeter=0;fontSize=16;" parent="1" source="B0UtHPyn-rio5vPZapoj-109" target="B0UtHPyn-rio5vPZapoj-115" edge="1">
          <mxGeometry relative="1" as="geometry">
            <mxPoint x="-1526" y="142" as="sourcePoint" />
            <mxPoint x="-1651" y="2" as="targetPoint" />
            <Array as="points">
              <mxPoint x="-1653" y="30" />
              <mxPoint x="-1740" y="30" />
              <mxPoint x="-1740" y="12" />
            </Array>
          </mxGeometry>
        </mxCell>
        <mxCell id="B0UtHPyn-rio5vPZapoj-118" value="" style="endArrow=none;html=1;rounded=0;exitX=0.5;exitY=0;exitDx=0;exitDy=0;entryX=0.5;entryY=1;entryDx=0;entryDy=0;edgeStyle=orthogonalEdgeStyle;fontSize=16;" parent="1" source="B0UtHPyn-rio5vPZapoj-109" target="B0UtHPyn-rio5vPZapoj-116" edge="1">
          <mxGeometry relative="1" as="geometry">
            <mxPoint x="-1588" y="98" as="sourcePoint" />
            <mxPoint x="-1551" y="2" as="targetPoint" />
          </mxGeometry>
        </mxCell>
        <mxCell id="B0UtHPyn-rio5vPZapoj-119" value="Appointment" style="whiteSpace=wrap;html=1;align=center;fontSize=16;fillColor=#CCEFBD;" parent="1" vertex="1">
          <mxGeometry x="-1000" y="673" width="100" height="40" as="geometry" />
        </mxCell>
        <mxCell id="B0UtHPyn-rio5vPZapoj-120" value="Id" style="ellipse;whiteSpace=wrap;html=1;align=center;fontStyle=4;fontSize=16;fillColor=#FFF2CC;" parent="1" vertex="1">
          <mxGeometry x="-995" y="583" width="90" height="40" as="geometry" />
        </mxCell>
        <mxCell id="B0UtHPyn-rio5vPZapoj-121" value="" style="endArrow=none;html=1;rounded=0;exitX=0.5;exitY=1;exitDx=0;exitDy=0;entryX=0.5;entryY=0;entryDx=0;entryDy=0;edgeStyle=orthogonalEdgeStyle;fontSize=16;" parent="1" source="B0UtHPyn-rio5vPZapoj-120" target="B0UtHPyn-rio5vPZapoj-119" edge="1">
          <mxGeometry relative="1" as="geometry">
            <mxPoint x="-1125" y="633" as="sourcePoint" />
            <mxPoint x="-1005" y="688" as="targetPoint" />
          </mxGeometry>
        </mxCell>
        <mxCell id="B0UtHPyn-rio5vPZapoj-122" value="Note" style="ellipse;whiteSpace=wrap;html=1;align=center;fontSize=16;fillColor=#FFF2CC;" parent="1" vertex="1">
          <mxGeometry x="-875" y="650" width="90" height="40" as="geometry" />
        </mxCell>
        <mxCell id="B0UtHPyn-rio5vPZapoj-123" value="" style="endArrow=none;html=1;rounded=0;exitX=0.5;exitY=1;exitDx=0;exitDy=0;entryX=1;entryY=0.5;entryDx=0;entryDy=0;edgeStyle=orthogonalEdgeStyle;fontSize=16;" parent="1" source="B0UtHPyn-rio5vPZapoj-122" target="B0UtHPyn-rio5vPZapoj-119" edge="1">
          <mxGeometry relative="1" as="geometry">
            <mxPoint x="-855" y="633" as="sourcePoint" />
            <mxPoint x="-775" y="673" as="targetPoint" />
            <Array as="points">
              <mxPoint x="-830" y="700" />
              <mxPoint x="-900" y="700" />
            </Array>
          </mxGeometry>
        </mxCell>
        <mxCell id="B0UtHPyn-rio5vPZapoj-124" value="Date" style="ellipse;whiteSpace=wrap;html=1;align=center;fontSize=16;fillColor=#FFF2CC;" parent="1" vertex="1">
          <mxGeometry x="-910" y="545" width="90" height="40" as="geometry" />
        </mxCell>
        <mxCell id="B0UtHPyn-rio5vPZapoj-125" value="" style="endArrow=none;html=1;rounded=0;exitX=0.5;exitY=1;exitDx=0;exitDy=0;entryX=0.75;entryY=0;entryDx=0;entryDy=0;edgeStyle=orthogonalEdgeStyle;fontSize=16;" parent="1" source="B0UtHPyn-rio5vPZapoj-124" target="B0UtHPyn-rio5vPZapoj-119" edge="1">
          <mxGeometry relative="1" as="geometry">
            <mxPoint x="-780" y="713" as="sourcePoint" />
            <mxPoint x="-875" y="753" as="targetPoint" />
            <Array as="points">
              <mxPoint x="-865" y="640" />
              <mxPoint x="-880" y="640" />
              <mxPoint x="-880" y="660" />
              <mxPoint x="-925" y="660" />
            </Array>
          </mxGeometry>
        </mxCell>
        <mxCell id="B0UtHPyn-rio5vPZapoj-126" value="" style="endArrow=none;html=1;rounded=0;entryX=0.75;entryY=0;entryDx=0;entryDy=0;exitX=0.5;exitY=1;exitDx=0;exitDy=0;edgeStyle=orthogonalEdgeStyle;fontSize=16;" parent="1" source="B0UtHPyn-rio5vPZapoj-127" target="B0UtHPyn-rio5vPZapoj-84" edge="1">
          <mxGeometry relative="1" as="geometry">
            <mxPoint x="-1426" y="132" as="sourcePoint" />
            <mxPoint x="-1455.4" y="137" as="targetPoint" />
            <Array as="points">
              <mxPoint x="-1485" y="93" />
              <mxPoint x="-1510" y="93" />
              <mxPoint x="-1510" y="167" />
            </Array>
          </mxGeometry>
        </mxCell>
        <mxCell id="B0UtHPyn-rio5vPZapoj-127" value="Phone" style="ellipse;whiteSpace=wrap;html=1;align=center;fontSize=16;fillColor=#FFF2CC;strokeColor=#000000;" parent="1" vertex="1">
          <mxGeometry x="-1530" y="-20" width="90" height="40" as="geometry" />
        </mxCell>
        <mxCell id="B0UtHPyn-rio5vPZapoj-128" value="Gender" style="ellipse;whiteSpace=wrap;html=1;align=center;fontSize=16;fillColor=#FFF2CC;strokeColor=#000000;" parent="1" vertex="1">
          <mxGeometry x="-1421" y="51" width="90" height="40" as="geometry" />
        </mxCell>
        <mxCell id="B0UtHPyn-rio5vPZapoj-129" value="" style="endArrow=none;html=1;rounded=0;entryX=1;entryY=0.25;entryDx=0;entryDy=0;exitX=0.5;exitY=1;exitDx=0;exitDy=0;edgeStyle=orthogonalEdgeStyle;fontSize=16;" parent="1" source="B0UtHPyn-rio5vPZapoj-128" target="B0UtHPyn-rio5vPZapoj-84" edge="1">
          <mxGeometry relative="1" as="geometry">
            <mxPoint x="-1453" y="116" as="sourcePoint" />
            <mxPoint x="-1476" y="177" as="targetPoint" />
            <Array as="points">
              <mxPoint x="-1376" y="110" />
              <mxPoint x="-1460" y="110" />
              <mxPoint x="-1460" y="177" />
            </Array>
          </mxGeometry>
        </mxCell>
        <mxCell id="B0UtHPyn-rio5vPZapoj-140" style="edgeStyle=orthogonalEdgeStyle;rounded=0;orthogonalLoop=1;jettySize=auto;html=1;exitX=0.5;exitY=0;exitDx=0;exitDy=0;endArrow=none;endFill=0;entryX=0;entryY=0.5;entryDx=0;entryDy=0;fontSize=16;" parent="1" source="B0UtHPyn-rio5vPZapoj-130" target="B0UtHPyn-rio5vPZapoj-136" edge="1">
          <mxGeometry relative="1" as="geometry">
            <Array as="points">
              <mxPoint x="-1351" y="110" />
              <mxPoint x="-1310" y="110" />
              <mxPoint x="-1310" y="52" />
            </Array>
          </mxGeometry>
        </mxCell>
        <mxCell id="B0UtHPyn-rio5vPZapoj-141" style="edgeStyle=orthogonalEdgeStyle;rounded=0;orthogonalLoop=1;jettySize=auto;html=1;entryX=0;entryY=0.5;entryDx=0;entryDy=0;endArrow=none;endFill=0;fontSize=16;" parent="1" source="B0UtHPyn-rio5vPZapoj-130" target="B0UtHPyn-rio5vPZapoj-137" edge="1">
          <mxGeometry relative="1" as="geometry" />
        </mxCell>
        <mxCell id="B0UtHPyn-rio5vPZapoj-142" style="edgeStyle=orthogonalEdgeStyle;rounded=0;orthogonalLoop=1;jettySize=auto;html=1;entryX=0;entryY=0.5;entryDx=0;entryDy=0;exitX=0.5;exitY=1;exitDx=0;exitDy=0;endArrow=none;endFill=0;fontSize=16;" parent="1" source="B0UtHPyn-rio5vPZapoj-130" target="B0UtHPyn-rio5vPZapoj-138" edge="1">
          <mxGeometry relative="1" as="geometry">
            <Array as="points">
              <mxPoint x="-1351" y="172" />
              <mxPoint x="-1296" y="172" />
              <mxPoint x="-1296" y="190" />
            </Array>
          </mxGeometry>
        </mxCell>
        <mxCell id="B0UtHPyn-rio5vPZapoj-130" value="Address" style="ellipse;whiteSpace=wrap;html=1;align=center;fontSize=16;fillColor=#FFF2CC;strokeColor=#000000;" parent="1" vertex="1">
          <mxGeometry x="-1396" y="122" width="90" height="40" as="geometry" />
        </mxCell>
        <mxCell id="B0UtHPyn-rio5vPZapoj-131" value="" style="endArrow=none;html=1;rounded=0;entryX=1;entryY=0.5;entryDx=0;entryDy=0;exitX=0;exitY=0.5;exitDx=0;exitDy=0;edgeStyle=orthogonalEdgeStyle;fontSize=16;" parent="1" source="B0UtHPyn-rio5vPZapoj-130" target="B0UtHPyn-rio5vPZapoj-84" edge="1">
          <mxGeometry relative="1" as="geometry">
            <mxPoint x="-1426" y="142" as="sourcePoint" />
            <mxPoint x="-1476" y="197" as="targetPoint" />
          </mxGeometry>
        </mxCell>
        <mxCell id="B0UtHPyn-rio5vPZapoj-132" value="" style="endArrow=none;html=1;rounded=0;exitX=0.5;exitY=1;exitDx=0;exitDy=0;edgeStyle=orthogonalEdgeStyle;entryX=0.122;entryY=0.03;entryDx=0;entryDy=0;entryPerimeter=0;fontSize=16;" parent="1" source="B0UtHPyn-rio5vPZapoj-133" target="B0UtHPyn-rio5vPZapoj-84" edge="1">
          <mxGeometry relative="1" as="geometry">
            <mxPoint x="-1356" y="232" as="sourcePoint" />
            <mxPoint x="-1486" y="202" as="targetPoint" />
            <Array as="points">
              <mxPoint x="-1806" y="150" />
              <mxPoint x="-1574" y="150" />
            </Array>
          </mxGeometry>
        </mxCell>
        <mxCell id="B0UtHPyn-rio5vPZapoj-133" value="EmpType" style="ellipse;whiteSpace=wrap;html=1;align=center;fontSize=16;fillColor=#FFF2CC;strokeColor=#000000;" parent="1" vertex="1">
          <mxGeometry x="-1851" y="30" width="90" height="40" as="geometry" />
        </mxCell>
        <mxCell id="B0UtHPyn-rio5vPZapoj-134" value="Speciality" style="ellipse;whiteSpace=wrap;html=1;align=center;fontSize=16;fillColor=#FFF2CC;" parent="1" vertex="1">
          <mxGeometry x="-1700" y="317" width="90" height="40" as="geometry" />
        </mxCell>
        <mxCell id="B0UtHPyn-rio5vPZapoj-135" value="" style="endArrow=none;html=1;rounded=0;entryX=1;entryY=0.5;entryDx=0;entryDy=0;edgeStyle=orthogonalEdgeStyle;exitX=0.25;exitY=0;exitDx=0;exitDy=0;fontSize=16;" parent="1" source="B0UtHPyn-rio5vPZapoj-86" target="B0UtHPyn-rio5vPZapoj-134" edge="1">
          <mxGeometry relative="1" as="geometry">
            <mxPoint x="-1590" y="360" as="sourcePoint" />
            <mxPoint x="-1696" y="367.5" as="targetPoint" />
            <Array as="points">
              <mxPoint x="-1561" y="337" />
            </Array>
          </mxGeometry>
        </mxCell>
        <mxCell id="B0UtHPyn-rio5vPZapoj-136" value="Street" style="ellipse;whiteSpace=wrap;html=1;align=center;fontSize=16;fillColor=#FFF2CC;strokeColor=#000000;" parent="1" vertex="1">
          <mxGeometry x="-1250" y="32" width="100" height="40" as="geometry" />
        </mxCell>
        <mxCell id="B0UtHPyn-rio5vPZapoj-137" value="City" style="ellipse;whiteSpace=wrap;html=1;align=center;fontSize=16;fillColor=#FFF2CC;strokeColor=#000000;" parent="1" vertex="1">
          <mxGeometry x="-1260" y="102" width="100" height="40" as="geometry" />
        </mxCell>
        <mxCell id="B0UtHPyn-rio5vPZapoj-138" value="State" style="ellipse;whiteSpace=wrap;html=1;align=center;fontSize=16;fillColor=#FFF2CC;strokeColor=#000000;" parent="1" vertex="1">
          <mxGeometry x="-1261" y="170" width="100" height="40" as="geometry" />
        </mxCell>
        <mxCell id="B0UtHPyn-rio5vPZapoj-143" value="CurrentCapcity" style="ellipse;whiteSpace=wrap;html=1;align=center;fontSize=16;fillColor=#FFF2CC;" parent="1" vertex="1">
          <mxGeometry x="-2605" y="957" width="135" height="40" as="geometry" />
        </mxCell>
        <mxCell id="lx9NzaWwOEV7F9frWTD8-22" style="edgeStyle=orthogonalEdgeStyle;rounded=0;orthogonalLoop=1;jettySize=auto;html=1;entryX=0.5;entryY=1;entryDx=0;entryDy=0;endArrow=none;endFill=0;" parent="1" source="B0UtHPyn-rio5vPZapoj-145" target="B0UtHPyn-rio5vPZapoj-86" edge="1">
          <mxGeometry relative="1" as="geometry" />
        </mxCell>
        <mxCell id="B0UtHPyn-rio5vPZapoj-145" value="Consults" style="shape=rhombus;perimeter=rhombusPerimeter;whiteSpace=wrap;html=1;align=center;fontSize=16;fillColor=#F2C18C;" parent="1" vertex="1">
          <mxGeometry x="-1625" y="654" width="113" height="50" as="geometry" />
        </mxCell>
        <mxCell id="B0UtHPyn-rio5vPZapoj-146" value="Books" style="shape=rhombus;perimeter=rhombusPerimeter;whiteSpace=wrap;html=1;align=center;fontSize=16;fillColor=#F2C18C;" parent="1" vertex="1">
          <mxGeometry x="-1325" y="710" width="100" height="50" as="geometry" />
        </mxCell>
        <mxCell id="B0UtHPyn-rio5vPZapoj-148" style="rounded=0;orthogonalLoop=1;jettySize=auto;html=1;entryX=0.75;entryY=1;entryDx=0;entryDy=0;exitX=0;exitY=0.5;exitDx=0;exitDy=0;endArrow=none;endFill=0;edgeStyle=orthogonalEdgeStyle;fontSize=16;" parent="1" edge="1">
          <mxGeometry relative="1" as="geometry">
            <mxPoint x="-1346" y="655" as="sourcePoint" />
            <mxPoint x="-1507" y="390" as="targetPoint" />
          </mxGeometry>
        </mxCell>
        <mxCell id="B0UtHPyn-rio5vPZapoj-147" value="Has" style="shape=rhombus;perimeter=rhombusPerimeter;whiteSpace=wrap;html=1;align=center;fontSize=16;fillColor=#F2C18C;" parent="1" vertex="1">
          <mxGeometry x="-1350" y="630" width="100" height="50" as="geometry" />
        </mxCell>
        <mxCell id="B0UtHPyn-rio5vPZapoj-156" value="" style="shape=link;html=1;rounded=0;exitX=0.25;exitY=1;exitDx=0;exitDy=0;entryX=1;entryY=0.5;entryDx=0;entryDy=0;edgeStyle=orthogonalEdgeStyle;fontSize=16;" parent="1" source="B0UtHPyn-rio5vPZapoj-119" target="B0UtHPyn-rio5vPZapoj-146" edge="1">
          <mxGeometry relative="1" as="geometry">
            <mxPoint x="-1000" y="707" as="sourcePoint" />
            <mxPoint x="-1225" y="739" as="targetPoint" />
          </mxGeometry>
        </mxCell>
        <mxCell id="B0UtHPyn-rio5vPZapoj-160" value="Assigns" style="shape=rhombus;perimeter=rhombusPerimeter;whiteSpace=wrap;html=1;align=center;fontSize=16;fillColor=#F2C18C;" parent="1" vertex="1">
          <mxGeometry x="-1261" y="545" width="100" height="50" as="geometry" />
        </mxCell>
        <mxCell id="B0UtHPyn-rio5vPZapoj-161" style="rounded=0;orthogonalLoop=1;jettySize=auto;html=1;entryX=0.75;entryY=1;entryDx=0;entryDy=0;exitX=0;exitY=0.5;exitDx=0;exitDy=0;endArrow=none;endFill=0;edgeStyle=orthogonalEdgeStyle;fontSize=16;" parent="1" source="B0UtHPyn-rio5vPZapoj-160" target="B0UtHPyn-rio5vPZapoj-87" edge="1">
          <mxGeometry relative="1" as="geometry">
            <mxPoint x="-1315" y="601" as="sourcePoint" />
            <mxPoint x="-1501" y="518" as="targetPoint" />
          </mxGeometry>
        </mxCell>
        <mxCell id="B0UtHPyn-rio5vPZapoj-162" value="" style="shape=link;html=1;rounded=0;exitX=0.25;exitY=0;exitDx=0;exitDy=0;entryX=1;entryY=0.5;entryDx=0;entryDy=0;edgeStyle=orthogonalEdgeStyle;fontSize=16;" parent="1" source="B0UtHPyn-rio5vPZapoj-119" target="B0UtHPyn-rio5vPZapoj-160" edge="1">
          <mxGeometry relative="1" as="geometry">
            <mxPoint x="-1037" y="626" as="sourcePoint" />
            <mxPoint x="-1215" y="601" as="targetPoint" />
            <Array as="points">
              <mxPoint x="-975" y="660" />
              <mxPoint x="-1080" y="660" />
              <mxPoint x="-1080" y="570" />
            </Array>
          </mxGeometry>
        </mxCell>
        <mxCell id="B0UtHPyn-rio5vPZapoj-165" style="edgeStyle=orthogonalEdgeStyle;rounded=0;orthogonalLoop=1;jettySize=auto;html=1;entryX=0.727;entryY=0.035;entryDx=0;entryDy=0;entryPerimeter=0;exitX=0;exitY=1;exitDx=0;exitDy=0;endArrow=none;endFill=0;fontSize=16;" parent="1" source="B0UtHPyn-rio5vPZapoj-4" target="B0UtHPyn-rio5vPZapoj-5" edge="1">
          <mxGeometry relative="1" as="geometry">
            <Array as="points">
              <mxPoint x="-1617" y="950" />
              <mxPoint x="-1827" y="950" />
            </Array>
          </mxGeometry>
        </mxCell>
        <mxCell id="B0UtHPyn-rio5vPZapoj-169" value="Has" style="shape=rhombus;perimeter=rhombusPerimeter;whiteSpace=wrap;html=1;align=center;fontSize=16;fillColor=#F2C18C;" parent="1" vertex="1">
          <mxGeometry x="-1306" y="810" width="100" height="50" as="geometry" />
        </mxCell>
        <mxCell id="B0UtHPyn-rio5vPZapoj-170" value="" style="shape=link;html=1;rounded=0;exitX=0;exitY=0.5;exitDx=0;exitDy=0;entryX=1;entryY=0.5;entryDx=0;entryDy=0;edgeStyle=orthogonalEdgeStyle;fontSize=16;" parent="1" source="B0UtHPyn-rio5vPZapoj-52" target="B0UtHPyn-rio5vPZapoj-169" edge="1">
          <mxGeometry relative="1" as="geometry">
            <mxPoint x="-990" y="713" as="sourcePoint" />
            <mxPoint x="-1215" y="745" as="targetPoint" />
          </mxGeometry>
        </mxCell>
        <mxCell id="B0UtHPyn-rio5vPZapoj-176" style="edgeStyle=orthogonalEdgeStyle;rounded=0;orthogonalLoop=1;jettySize=auto;html=1;endArrow=none;endFill=0;entryX=1;entryY=0.5;entryDx=0;entryDy=0;fontSize=16;" parent="1" source="B0UtHPyn-rio5vPZapoj-174" target="B0UtHPyn-rio5vPZapoj-87" edge="1">
          <mxGeometry relative="1" as="geometry">
            <mxPoint x="-1331" y="500" as="targetPoint" />
            <Array as="points">
              <mxPoint x="-720" y="380" />
            </Array>
          </mxGeometry>
        </mxCell>
        <mxCell id="B0UtHPyn-rio5vPZapoj-174" value="Records" style="shape=rhombus;perimeter=rhombusPerimeter;whiteSpace=wrap;html=1;align=center;fillColor=#F2C18C;fontSize=16;" parent="1" vertex="1">
          <mxGeometry x="-770" y="630" width="100" height="50" as="geometry" />
        </mxCell>
        <mxCell id="B0UtHPyn-rio5vPZapoj-175" value="" style="shape=link;html=1;rounded=0;exitX=1;exitY=0.5;exitDx=0;exitDy=0;entryX=0.5;entryY=1;entryDx=0;entryDy=0;edgeStyle=orthogonalEdgeStyle;fontSize=16;" parent="1" source="B0UtHPyn-rio5vPZapoj-52" target="B0UtHPyn-rio5vPZapoj-174" edge="1">
          <mxGeometry relative="1" as="geometry">
            <mxPoint x="-959" y="943" as="sourcePoint" />
            <mxPoint x="-1196" y="845" as="targetPoint" />
          </mxGeometry>
        </mxCell>
        <mxCell id="B0UtHPyn-rio5vPZapoj-181" style="edgeStyle=orthogonalEdgeStyle;rounded=0;orthogonalLoop=1;jettySize=auto;html=1;entryX=0.5;entryY=1;entryDx=0;entryDy=0;endArrow=none;endFill=0;fontSize=16;" parent="1" source="B0UtHPyn-rio5vPZapoj-177" target="B0UtHPyn-rio5vPZapoj-47" edge="1">
          <mxGeometry relative="1" as="geometry" />
        </mxCell>
        <mxCell id="B0UtHPyn-rio5vPZapoj-177" value="Hosts" style="shape=rhombus;perimeter=rhombusPerimeter;whiteSpace=wrap;html=1;align=center;fontSize=16;fillColor=#F2C18C;" parent="1" vertex="1">
          <mxGeometry x="-2594" y="1228" width="100" height="50" as="geometry" />
        </mxCell>
        <mxCell id="B0UtHPyn-rio5vPZapoj-179" value="" style="shape=link;html=1;rounded=0;exitX=0.5;exitY=1;exitDx=0;exitDy=0;entryX=0.383;entryY=1.06;entryDx=0;entryDy=0;edgeStyle=orthogonalEdgeStyle;fontSize=16;entryPerimeter=0;" parent="1" source="B0UtHPyn-rio5vPZapoj-177" target="B0UtHPyn-rio5vPZapoj-23" edge="1">
          <mxGeometry relative="1" as="geometry">
            <mxPoint x="-2417" y="1352" as="sourcePoint" />
            <mxPoint x="-1628" y="1167.5000000000005" as="targetPoint" />
            <Array as="points">
              <mxPoint x="-2544" y="1370" />
              <mxPoint x="-1640" y="1370" />
              <mxPoint x="-1640" y="1170" />
            </Array>
          </mxGeometry>
        </mxCell>
        <mxCell id="B0UtHPyn-rio5vPZapoj-183" value="" style="shape=link;html=1;rounded=0;exitX=0;exitY=0.5;exitDx=0;exitDy=0;entryX=1;entryY=0.5;entryDx=0;entryDy=0;edgeStyle=orthogonalEdgeStyle;fontSize=16;" parent="1" target="B0UtHPyn-rio5vPZapoj-147" edge="1">
          <mxGeometry relative="1" as="geometry">
            <mxPoint x="-1000" y="696" as="sourcePoint" />
            <mxPoint x="-1250" y="651" as="targetPoint" />
            <Array as="points">
              <mxPoint x="-1220" y="696" />
              <mxPoint x="-1220" y="655" />
            </Array>
          </mxGeometry>
        </mxCell>
        <mxCell id="B0UtHPyn-rio5vPZapoj-184" value="Serves" style="shape=rhombus;perimeter=rhombusPerimeter;whiteSpace=wrap;html=1;align=center;fillColor=#F2C18C;fontSize=16;" parent="1" vertex="1">
          <mxGeometry x="-2798" y="553" width="100" height="50" as="geometry" />
        </mxCell>
        <mxCell id="B0UtHPyn-rio5vPZapoj-186" value="" style="shape=link;html=1;rounded=0;entryX=0.5;entryY=0;entryDx=0;entryDy=0;exitX=0;exitY=0.25;exitDx=0;exitDy=0;edgeStyle=orthogonalEdgeStyle;fontSize=16;" parent="1" target="B0UtHPyn-rio5vPZapoj-184" edge="1">
          <mxGeometry relative="1" as="geometry">
            <mxPoint x="-1856" y="362" as="sourcePoint" />
            <mxPoint x="-2793" y="555" as="targetPoint" />
          </mxGeometry>
        </mxCell>
        <mxCell id="B0UtHPyn-rio5vPZapoj-192" style="edgeStyle=orthogonalEdgeStyle;rounded=0;orthogonalLoop=1;jettySize=auto;html=1;endArrow=none;endFill=0;exitX=0.5;exitY=1;exitDx=0;exitDy=0;entryX=0.25;entryY=1;entryDx=0;entryDy=0;fontSize=16;" parent="1" source="B0UtHPyn-rio5vPZapoj-189" target="B0UtHPyn-rio5vPZapoj-23" edge="1">
          <mxGeometry relative="1" as="geometry">
            <mxPoint x="-1670" y="1170" as="targetPoint" />
            <Array as="points">
              <mxPoint x="-2318" y="1320" />
              <mxPoint x="-1660" y="1320" />
              <mxPoint x="-1660" y="1168" />
            </Array>
          </mxGeometry>
        </mxCell>
        <mxCell id="B0UtHPyn-rio5vPZapoj-189" value="Gives" style="shape=rhombus;perimeter=rhombusPerimeter;whiteSpace=wrap;html=1;align=center;fontSize=16;fillColor=#F2C18C;" parent="1" vertex="1">
          <mxGeometry x="-2368" y="797" width="100" height="50" as="geometry" />
        </mxCell>
        <mxCell id="B0UtHPyn-rio5vPZapoj-193" value="Has" style="shape=rhombus;perimeter=rhombusPerimeter;whiteSpace=wrap;html=1;align=center;fontSize=16;fillColor=#F2C18C;" parent="1" vertex="1">
          <mxGeometry x="-1870" y="843" width="100" height="50" as="geometry" />
        </mxCell>
        <mxCell id="B0UtHPyn-rio5vPZapoj-202" style="edgeStyle=orthogonalEdgeStyle;rounded=0;orthogonalLoop=1;jettySize=auto;html=1;entryX=0.25;entryY=1;entryDx=0;entryDy=0;endArrow=none;endFill=0;fontSize=16;exitX=1;exitY=0.5;exitDx=0;exitDy=0;" parent="1" source="B0UtHPyn-rio5vPZapoj-195" target="B0UtHPyn-rio5vPZapoj-86" edge="1">
          <mxGeometry relative="1" as="geometry">
            <Array as="points">
              <mxPoint x="-1590" y="568" />
              <mxPoint x="-1590" y="450" />
              <mxPoint x="-1561" y="450" />
            </Array>
          </mxGeometry>
        </mxCell>
        <mxCell id="lx9NzaWwOEV7F9frWTD8-17" style="edgeStyle=orthogonalEdgeStyle;rounded=0;orthogonalLoop=1;jettySize=auto;html=1;endArrow=none;endFill=0;" parent="1" source="B0UtHPyn-rio5vPZapoj-195" target="lx9NzaWwOEV7F9frWTD8-14" edge="1">
          <mxGeometry relative="1" as="geometry" />
        </mxCell>
        <mxCell id="B0UtHPyn-rio5vPZapoj-195" value="Writes" style="shape=rhombus;perimeter=rhombusPerimeter;whiteSpace=wrap;html=1;align=center;fontSize=16;fillColor=#F2C18C;" parent="1" vertex="1">
          <mxGeometry x="-1806" y="543" width="100" height="50" as="geometry" />
        </mxCell>
        <mxCell id="B0UtHPyn-rio5vPZapoj-196" value="" style="shape=link;html=1;rounded=0;exitX=1;exitY=0.5;exitDx=0;exitDy=0;entryX=0;entryY=0.25;entryDx=0;entryDy=0;edgeStyle=orthogonalEdgeStyle;fontSize=16;" parent="1" source="B0UtHPyn-rio5vPZapoj-193" target="B0UtHPyn-rio5vPZapoj-4" edge="1">
          <mxGeometry relative="1" as="geometry">
            <mxPoint x="-1557" y="655" as="sourcePoint" />
            <mxPoint x="-1557" y="910" as="targetPoint" />
          </mxGeometry>
        </mxCell>
        <mxCell id="B0UtHPyn-rio5vPZapoj-197" value="" style="shape=link;html=1;rounded=0;exitX=1;exitY=0.5;exitDx=0;exitDy=0;entryX=0;entryY=0.5;entryDx=0;entryDy=0;edgeStyle=orthogonalEdgeStyle;fontSize=16;" parent="1" source="B0UtHPyn-rio5vPZapoj-80" target="B0UtHPyn-rio5vPZapoj-193" edge="1">
          <mxGeometry relative="1" as="geometry">
            <mxPoint x="-1836" y="798" as="sourcePoint" />
            <mxPoint x="-1607" y="911" as="targetPoint" />
          </mxGeometry>
        </mxCell>
        <mxCell id="B0UtHPyn-rio5vPZapoj-199" value="" style="shape=link;html=1;rounded=0;exitX=0.5;exitY=1;exitDx=0;exitDy=0;entryX=0;entryY=0.5;entryDx=0;entryDy=0;edgeStyle=orthogonalEdgeStyle;fontSize=16;" parent="1" source="B0UtHPyn-rio5vPZapoj-66" target="B0UtHPyn-rio5vPZapoj-205" edge="1">
          <mxGeometry relative="1" as="geometry">
            <mxPoint x="-1593" y="808" as="sourcePoint" />
            <mxPoint x="-1838" y="680" as="targetPoint" />
            <Array as="points">
              <mxPoint x="-2017" y="665" />
            </Array>
          </mxGeometry>
        </mxCell>
        <mxCell id="B0UtHPyn-rio5vPZapoj-200" value="" style="shape=link;html=1;rounded=0;exitX=1;exitY=0.5;exitDx=0;exitDy=0;entryX=0;entryY=0.5;entryDx=0;entryDy=0;fontSize=16;" parent="1" source="B0UtHPyn-rio5vPZapoj-66" target="B0UtHPyn-rio5vPZapoj-195" edge="1">
          <mxGeometry relative="1" as="geometry">
            <mxPoint x="-2039" y="583" as="sourcePoint" />
            <mxPoint x="-1711" y="750" as="targetPoint" />
          </mxGeometry>
        </mxCell>
        <mxCell id="B0UtHPyn-rio5vPZapoj-205" value="Has" style="shape=rhombus;perimeter=rhombusPerimeter;whiteSpace=wrap;html=1;align=center;fontSize=16;fillColor=#F2C18C;" parent="1" vertex="1">
          <mxGeometry x="-1870" y="640" width="100" height="50" as="geometry" />
        </mxCell>
        <mxCell id="B0UtHPyn-rio5vPZapoj-206" style="edgeStyle=orthogonalEdgeStyle;rounded=0;orthogonalLoop=1;jettySize=auto;html=1;entryX=0.127;entryY=0.028;entryDx=0;entryDy=0;endArrow=none;endFill=0;exitX=1;exitY=0.5;exitDx=0;exitDy=0;entryPerimeter=0;fontSize=16;" parent="1" source="B0UtHPyn-rio5vPZapoj-205" target="B0UtHPyn-rio5vPZapoj-4" edge="1">
          <mxGeometry relative="1" as="geometry">
            <mxPoint x="-1696" y="558" as="sourcePoint" />
            <mxPoint x="-1551" y="400" as="targetPoint" />
          </mxGeometry>
        </mxCell>
        <mxCell id="B0UtHPyn-rio5vPZapoj-207" value="&lt;font style=&quot;font-size: 16px;&quot;&gt;1&lt;/font&gt;" style="text;html=1;align=center;verticalAlign=middle;resizable=0;points=[];autosize=1;strokeColor=none;fillColor=none;fontSize=16;" parent="1" vertex="1">
          <mxGeometry x="-1315" y="355" width="30" height="30" as="geometry" />
        </mxCell>
        <mxCell id="B0UtHPyn-rio5vPZapoj-208" value="&lt;font style=&quot;font-size: 16px;&quot;&gt;1&lt;/font&gt;" style="text;html=1;align=center;verticalAlign=middle;resizable=0;points=[];autosize=1;strokeColor=none;fillColor=none;fontSize=16;" parent="1" vertex="1">
          <mxGeometry x="-2040" y="166" width="30" height="30" as="geometry" />
        </mxCell>
        <mxCell id="B0UtHPyn-rio5vPZapoj-213" value="&lt;font style=&quot;font-size: 16px;&quot;&gt;1&lt;/font&gt;" style="text;html=1;align=center;verticalAlign=middle;resizable=0;points=[];autosize=1;strokeColor=none;fillColor=none;fontSize=16;" parent="1" vertex="1">
          <mxGeometry x="-1915" y="327" width="30" height="30" as="geometry" />
        </mxCell>
        <mxCell id="B0UtHPyn-rio5vPZapoj-214" value="&lt;font style=&quot;font-size: 16px;&quot;&gt;1&lt;/font&gt;" style="text;html=1;align=center;verticalAlign=middle;resizable=0;points=[];autosize=1;strokeColor=none;fillColor=none;fontSize=16;" parent="1" vertex="1">
          <mxGeometry x="-2580" y="1137.5" width="30" height="30" as="geometry" />
        </mxCell>
        <mxCell id="B0UtHPyn-rio5vPZapoj-216" value="&lt;font style=&quot;font-size: 16px;&quot;&gt;M&lt;/font&gt;" style="text;html=1;align=center;verticalAlign=middle;resizable=0;points=[];autosize=1;strokeColor=none;fillColor=none;fontSize=16;" parent="1" vertex="1">
          <mxGeometry x="-1593" y="398" width="40" height="30" as="geometry" />
        </mxCell>
        <mxCell id="B0UtHPyn-rio5vPZapoj-217" value="&lt;font style=&quot;font-size: 16px;&quot;&gt;1&lt;/font&gt;" style="text;html=1;align=center;verticalAlign=middle;resizable=0;points=[];autosize=1;strokeColor=none;fillColor=none;fontSize=16;" parent="1" vertex="1">
          <mxGeometry x="-2008" y="598" width="30" height="30" as="geometry" />
        </mxCell>
        <mxCell id="B0UtHPyn-rio5vPZapoj-218" value="&lt;font style=&quot;font-size: 16px;&quot;&gt;1&lt;/font&gt;" style="text;html=1;align=center;verticalAlign=middle;resizable=0;points=[];autosize=1;strokeColor=none;fillColor=none;fontSize=16;" parent="1" vertex="1">
          <mxGeometry x="-1661" y="854" width="30" height="30" as="geometry" />
        </mxCell>
        <mxCell id="B0UtHPyn-rio5vPZapoj-221" value="&lt;font style=&quot;font-size: 16px;&quot;&gt;1&lt;/font&gt;" style="text;html=1;align=center;verticalAlign=middle;resizable=0;points=[];autosize=1;strokeColor=none;fillColor=none;fontSize=16;" parent="1" vertex="1">
          <mxGeometry x="-1361" y="410" width="30" height="30" as="geometry" />
        </mxCell>
        <mxCell id="B0UtHPyn-rio5vPZapoj-222" value="&lt;font style=&quot;font-size: 16px;&quot;&gt;M&lt;/font&gt;" style="text;html=1;align=center;verticalAlign=middle;resizable=0;points=[];autosize=1;strokeColor=none;fillColor=none;fontSize=16;" parent="1" vertex="1">
          <mxGeometry x="-1040" y="630" width="40" height="30" as="geometry" />
        </mxCell>
        <mxCell id="B0UtHPyn-rio5vPZapoj-223" value="&lt;span style=&quot;font-size: 16px;&quot;&gt;M&lt;/span&gt;" style="text;html=1;align=center;verticalAlign=middle;resizable=0;points=[];autosize=1;strokeColor=none;fillColor=none;fontSize=16;" parent="1" vertex="1">
          <mxGeometry x="-1045" y="664" width="40" height="30" as="geometry" />
        </mxCell>
        <mxCell id="B0UtHPyn-rio5vPZapoj-224" value="&lt;font style=&quot;font-size: 16px;&quot;&gt;1&lt;/font&gt;" style="text;html=1;align=center;verticalAlign=middle;resizable=0;points=[];autosize=1;strokeColor=none;fillColor=none;fontSize=16;" parent="1" vertex="1">
          <mxGeometry x="-1512" y="401" width="30" height="30" as="geometry" />
        </mxCell>
        <mxCell id="B0UtHPyn-rio5vPZapoj-225" value="&lt;span style=&quot;font-size: 16px;&quot;&gt;1&lt;/span&gt;" style="text;html=1;align=center;verticalAlign=middle;resizable=0;points=[];autosize=1;strokeColor=none;fillColor=none;fontSize=16;" parent="1" vertex="1">
          <mxGeometry x="-1030" y="740" width="30" height="30" as="geometry" />
        </mxCell>
        <mxCell id="B0UtHPyn-rio5vPZapoj-227" value="&lt;font style=&quot;font-size: 16px;&quot;&gt;M&lt;/font&gt;" style="text;html=1;align=center;verticalAlign=middle;resizable=0;points=[];autosize=1;strokeColor=none;fillColor=none;fontSize=16;" parent="1" vertex="1">
          <mxGeometry x="-850" y="939" width="40" height="30" as="geometry" />
        </mxCell>
        <mxCell id="B0UtHPyn-rio5vPZapoj-228" value="&lt;font style=&quot;font-size: 16px;&quot;&gt;M&lt;/font&gt;" style="text;html=1;align=center;verticalAlign=middle;resizable=0;points=[];autosize=1;strokeColor=none;fillColor=none;fontSize=16;" parent="1" vertex="1">
          <mxGeometry x="-1635" y="160" width="40" height="30" as="geometry" />
        </mxCell>
        <mxCell id="B0UtHPyn-rio5vPZapoj-229" value="&lt;font style=&quot;font-size: 16px;&quot;&gt;1&lt;/font&gt;" style="text;html=1;align=center;verticalAlign=middle;resizable=0;points=[];autosize=1;strokeColor=none;fillColor=none;fontSize=16;" parent="1" vertex="1">
          <mxGeometry x="-1025" y="937.5" width="30" height="30" as="geometry" />
        </mxCell>
        <mxCell id="B0UtHPyn-rio5vPZapoj-230" value="&lt;font style=&quot;font-size: 16px;&quot;&gt;1&lt;/font&gt;" style="text;html=1;align=center;verticalAlign=middle;resizable=0;points=[];autosize=1;strokeColor=none;fillColor=none;fontSize=16;" parent="1" vertex="1">
          <mxGeometry x="-1544" y="861.5" width="30" height="30" as="geometry" />
        </mxCell>
        <mxCell id="B0UtHPyn-rio5vPZapoj-235" value="&lt;font style=&quot;font-size: 16px;&quot;&gt;M&lt;/font&gt;" style="text;html=1;align=center;verticalAlign=middle;resizable=0;points=[];autosize=1;strokeColor=none;fillColor=none;fontSize=16;" parent="1" vertex="1">
          <mxGeometry x="-2650" y="1118" width="40" height="30" as="geometry" />
        </mxCell>
        <mxCell id="B0UtHPyn-rio5vPZapoj-237" value="&lt;font style=&quot;font-size: 16px;&quot;&gt;M&lt;/font&gt;" style="text;html=1;align=center;verticalAlign=middle;resizable=0;points=[];autosize=1;strokeColor=none;fillColor=none;fontSize=16;" parent="1" vertex="1">
          <mxGeometry x="-1696" y="1217" width="40" height="30" as="geometry" />
        </mxCell>
        <mxCell id="B0UtHPyn-rio5vPZapoj-238" value="&lt;font style=&quot;font-size: 16px;&quot;&gt;M&lt;/font&gt;" style="text;html=1;align=center;verticalAlign=middle;resizable=0;points=[];autosize=1;strokeColor=none;fillColor=none;fontSize=16;" parent="1" vertex="1">
          <mxGeometry x="-1958" y="535" width="40" height="30" as="geometry" />
        </mxCell>
        <mxCell id="B0UtHPyn-rio5vPZapoj-240" value="&lt;font style=&quot;font-size: 16px;&quot;&gt;1&lt;/font&gt;" style="text;html=1;align=center;verticalAlign=middle;resizable=0;points=[];autosize=1;strokeColor=none;fillColor=none;fontSize=16;" parent="1" vertex="1">
          <mxGeometry x="-1951" y="841" width="30" height="30" as="geometry" />
        </mxCell>
        <mxCell id="B0UtHPyn-rio5vPZapoj-241" value="&lt;font style=&quot;font-size: 16px;&quot;&gt;1&lt;/font&gt;" style="text;html=1;align=center;verticalAlign=middle;resizable=0;points=[];autosize=1;strokeColor=none;fillColor=none;fontSize=16;" parent="1" vertex="1">
          <mxGeometry x="-1700" y="881" width="30" height="30" as="geometry" />
        </mxCell>
        <mxCell id="B0UtHPyn-rio5vPZapoj-243" value="d" style="ellipse;whiteSpace=wrap;html=1;aspect=fixed;fontSize=16;fillColor=#F2C18C;" parent="1" vertex="1">
          <mxGeometry x="-1584" y="1009" width="30" height="30" as="geometry" />
        </mxCell>
        <mxCell id="B0UtHPyn-rio5vPZapoj-247" value="&lt;font style=&quot;font-size: 16px;&quot;&gt;M&lt;/font&gt;" style="text;html=1;align=center;verticalAlign=middle;resizable=0;points=[];autosize=1;strokeColor=none;fillColor=none;fontSize=16;" parent="1" vertex="1">
          <mxGeometry x="-2484" y="827" width="40" height="30" as="geometry" />
        </mxCell>
        <mxCell id="B0UtHPyn-rio5vPZapoj-248" value="&lt;font style=&quot;font-size: 16px;&quot;&gt;M&lt;/font&gt;" style="text;html=1;align=center;verticalAlign=middle;resizable=0;points=[];autosize=1;strokeColor=none;fillColor=none;fontSize=16;" parent="1" vertex="1">
          <mxGeometry x="-1900" y="380" width="40" height="30" as="geometry" />
        </mxCell>
        <mxCell id="6WzPSW7-0wgQ0Tm0oLC6-4" style="edgeStyle=orthogonalEdgeStyle;rounded=0;orthogonalLoop=1;jettySize=auto;html=1;entryX=1;entryY=1;entryDx=0;entryDy=0;endArrow=none;endFill=0;" parent="1" source="6WzPSW7-0wgQ0Tm0oLC6-1" target="B0UtHPyn-rio5vPZapoj-189" edge="1">
          <mxGeometry relative="1" as="geometry" />
        </mxCell>
        <mxCell id="6WzPSW7-0wgQ0Tm0oLC6-1" value="DateTime" style="ellipse;whiteSpace=wrap;html=1;align=center;fontSize=16;fillColor=#FFF2CC;" parent="1" vertex="1">
          <mxGeometry x="-2290" y="890.5" width="100" height="40" as="geometry" />
        </mxCell>
        <mxCell id="6WzPSW7-0wgQ0Tm0oLC6-3" style="edgeStyle=orthogonalEdgeStyle;rounded=0;orthogonalLoop=1;jettySize=auto;html=1;entryX=0;entryY=1;entryDx=0;entryDy=0;endArrow=none;endFill=0;" parent="1" source="6WzPSW7-0wgQ0Tm0oLC6-2" target="B0UtHPyn-rio5vPZapoj-189" edge="1">
          <mxGeometry relative="1" as="geometry" />
        </mxCell>
        <mxCell id="6WzPSW7-0wgQ0Tm0oLC6-2" value="Dosage" style="ellipse;whiteSpace=wrap;html=1;align=center;fontSize=16;fillColor=#FFF2CC;" parent="1" vertex="1">
          <mxGeometry x="-2444" y="890.5" width="100" height="40" as="geometry" />
        </mxCell>
        <mxCell id="lx9NzaWwOEV7F9frWTD8-18" style="edgeStyle=orthogonalEdgeStyle;rounded=0;orthogonalLoop=1;jettySize=auto;html=1;endArrow=none;endFill=0;" parent="1" source="6WzPSW7-0wgQ0Tm0oLC6-5" target="lx9NzaWwOEV7F9frWTD8-15" edge="1">
          <mxGeometry relative="1" as="geometry">
            <Array as="points">
              <mxPoint x="-2280" y="715" />
            </Array>
          </mxGeometry>
        </mxCell>
        <mxCell id="6WzPSW7-0wgQ0Tm0oLC6-5" value="Writes" style="shape=rhombus;perimeter=rhombusPerimeter;whiteSpace=wrap;html=1;align=center;fontSize=16;fillColor=#F2C18C;" parent="1" vertex="1">
          <mxGeometry x="-2260" y="690" width="100" height="50" as="geometry" />
        </mxCell>
        <mxCell id="6WzPSW7-0wgQ0Tm0oLC6-6" value="" style="shape=link;html=1;rounded=0;exitX=0.5;exitY=1;exitDx=0;exitDy=0;entryX=0;entryY=0.5;entryDx=0;entryDy=0;edgeStyle=orthogonalEdgeStyle;fontSize=16;" parent="1" source="6WzPSW7-0wgQ0Tm0oLC6-5" target="B0UtHPyn-rio5vPZapoj-80" edge="1">
          <mxGeometry relative="1" as="geometry">
            <mxPoint x="-2170" y="909.67" as="sourcePoint" />
            <mxPoint x="-2080" y="910.67" as="targetPoint" />
          </mxGeometry>
        </mxCell>
        <mxCell id="6WzPSW7-0wgQ0Tm0oLC6-8" value="&lt;font style=&quot;font-size: 16px;&quot;&gt;1&lt;/font&gt;" style="text;html=1;align=center;verticalAlign=middle;resizable=0;points=[];autosize=1;strokeColor=none;fillColor=none;fontSize=16;" parent="1" vertex="1">
          <mxGeometry x="-1619.5" y="377" width="30" height="30" as="geometry" />
        </mxCell>
        <mxCell id="6WzPSW7-0wgQ0Tm0oLC6-9" value="&lt;font style=&quot;font-size: 16px;&quot;&gt;M&lt;/font&gt;" style="text;html=1;align=center;verticalAlign=middle;resizable=0;points=[];autosize=1;strokeColor=none;fillColor=none;fontSize=16;" parent="1" vertex="1">
          <mxGeometry x="-2103" y="871" width="40" height="30" as="geometry" />
        </mxCell>
        <mxCell id="6WzPSW7-0wgQ0Tm0oLC6-12" value="Symptom" style="ellipse;whiteSpace=wrap;html=1;align=center;fontSize=16;fillColor=#FFF2CC;" parent="1" vertex="1">
          <mxGeometry x="-2091" y="760" width="100" height="40" as="geometry" />
        </mxCell>
        <mxCell id="6WzPSW7-0wgQ0Tm0oLC6-13" value="Diagnosis" style="ellipse;whiteSpace=wrap;html=1;align=center;fontSize=16;fillColor=#FFF2CC;" parent="1" vertex="1">
          <mxGeometry x="-2199" y="792" width="100" height="40" as="geometry" />
        </mxCell>
        <mxCell id="6WzPSW7-0wgQ0Tm0oLC6-22" value="&lt;font style=&quot;font-size: 16px;&quot;&gt;M&lt;/font&gt;" style="text;html=1;align=center;verticalAlign=middle;resizable=0;points=[];autosize=1;strokeColor=none;fillColor=none;fontSize=16;" parent="1" vertex="1">
          <mxGeometry x="-2108" y="565" width="40" height="30" as="geometry" />
        </mxCell>
        <mxCell id="6WzPSW7-0wgQ0Tm0oLC6-26" value="" style="shape=link;html=1;rounded=0;entryX=0;entryY=0.5;entryDx=0;entryDy=0;exitX=0.5;exitY=1;exitDx=0;exitDy=0;edgeStyle=orthogonalEdgeStyle;fontSize=16;" parent="1" source="B0UtHPyn-rio5vPZapoj-184" target="B0UtHPyn-rio5vPZapoj-47" edge="1">
          <mxGeometry relative="1" as="geometry">
            <mxPoint x="-1846" y="372" as="sourcePoint" />
            <mxPoint x="-2738" y="563" as="targetPoint" />
            <Array as="points">
              <mxPoint x="-2748" y="1107" />
            </Array>
          </mxGeometry>
        </mxCell>
        <mxCell id="a8ZDs8WOiXL_vofYgv4g-2" value="Name" style="ellipse;whiteSpace=wrap;html=1;align=center;fontSize=16;fillColor=#FFF2CC;" parent="1" vertex="1">
          <mxGeometry x="-2730" y="787" width="115" height="40" as="geometry" />
        </mxCell>
        <mxCell id="lx9NzaWwOEV7F9frWTD8-6" value="" style="shape=link;html=1;rounded=0;exitX=0;exitY=0.5;exitDx=0;exitDy=0;edgeStyle=orthogonalEdgeStyle;fontSize=16;" parent="1" source="B0UtHPyn-rio5vPZapoj-146" edge="1">
          <mxGeometry relative="1" as="geometry">
            <mxPoint x="-1369.5" y="734" as="sourcePoint" />
            <mxPoint x="-1570" y="900" as="targetPoint" />
          </mxGeometry>
        </mxCell>
        <mxCell id="lx9NzaWwOEV7F9frWTD8-7" value="&lt;span style=&quot;font-size: 16px;&quot;&gt;1&lt;/span&gt;" style="text;html=1;align=center;verticalAlign=middle;resizable=0;points=[];autosize=1;strokeColor=none;fillColor=none;fontSize=16;" parent="1" vertex="1">
          <mxGeometry x="-1574" y="864" width="30" height="30" as="geometry" />
        </mxCell>
        <mxCell id="lx9NzaWwOEV7F9frWTD8-8" value="" style="shape=link;html=1;rounded=0;exitX=0;exitY=0.5;exitDx=0;exitDy=0;edgeStyle=orthogonalEdgeStyle;fontSize=16;" parent="1" source="B0UtHPyn-rio5vPZapoj-169" edge="1">
          <mxGeometry relative="1" as="geometry">
            <mxPoint x="-1315" y="745" as="sourcePoint" />
            <mxPoint x="-1540" y="900" as="targetPoint" />
          </mxGeometry>
        </mxCell>
        <mxCell id="lx9NzaWwOEV7F9frWTD8-12" value="Examines" style="shape=rhombus;perimeter=rhombusPerimeter;whiteSpace=wrap;html=1;align=center;fontSize=16;fillColor=#F2C18C;" parent="1" vertex="1">
          <mxGeometry x="-1391.5" y="1270" width="113" height="50" as="geometry" />
        </mxCell>
        <mxCell id="lx9NzaWwOEV7F9frWTD8-13" style="edgeStyle=orthogonalEdgeStyle;rounded=0;orthogonalLoop=1;jettySize=auto;html=1;endArrow=none;endFill=0;" parent="1" source="6WzPSW7-0wgQ0Tm0oLC6-5" edge="1">
          <mxGeometry relative="1" as="geometry">
            <mxPoint x="-1590" y="374" as="targetPoint" />
            <Array as="points">
              <mxPoint x="-2210" y="430" />
              <mxPoint x="-1640" y="430" />
              <mxPoint x="-1640" y="374" />
            </Array>
          </mxGeometry>
        </mxCell>
        <mxCell id="lx9NzaWwOEV7F9frWTD8-14" value="Date" style="ellipse;whiteSpace=wrap;html=1;align=center;fontSize=16;fillColor=#FFF2CC;" parent="1" vertex="1">
          <mxGeometry x="-1806" y="465" width="100" height="40" as="geometry" />
        </mxCell>
        <mxCell id="lx9NzaWwOEV7F9frWTD8-15" value="Date" style="ellipse;whiteSpace=wrap;html=1;align=center;fontSize=16;fillColor=#FFF2CC;" parent="1" vertex="1">
          <mxGeometry x="-2314" y="600" width="100" height="40" as="geometry" />
        </mxCell>
        <mxCell id="lx9NzaWwOEV7F9frWTD8-29" style="edgeStyle=orthogonalEdgeStyle;rounded=0;orthogonalLoop=1;jettySize=auto;html=1;endArrow=none;endFill=0;" parent="1" source="lx9NzaWwOEV7F9frWTD8-16" target="lx9NzaWwOEV7F9frWTD8-12" edge="1">
          <mxGeometry relative="1" as="geometry" />
        </mxCell>
        <mxCell id="lx9NzaWwOEV7F9frWTD8-16" value="Date" style="ellipse;whiteSpace=wrap;html=1;align=center;fontSize=16;fillColor=#FFF2CC;" parent="1" vertex="1">
          <mxGeometry x="-1385" y="1350" width="100" height="40" as="geometry" />
        </mxCell>
        <mxCell id="lx9NzaWwOEV7F9frWTD8-20" value="" style="shape=link;html=1;rounded=0;exitX=0.5;exitY=1;exitDx=0;exitDy=0;edgeStyle=orthogonalEdgeStyle;fontSize=16;entryX=0.339;entryY=0.062;entryDx=0;entryDy=0;entryPerimeter=0;" parent="1" source="B0UtHPyn-rio5vPZapoj-145" target="B0UtHPyn-rio5vPZapoj-4" edge="1">
          <mxGeometry relative="1" as="geometry">
            <mxPoint x="-1315" y="745" as="sourcePoint" />
            <mxPoint x="-1560" y="910" as="targetPoint" />
            <Array as="points">
              <mxPoint x="-1568" y="720" />
              <mxPoint x="-1605" y="720" />
            </Array>
          </mxGeometry>
        </mxCell>
        <mxCell id="lx9NzaWwOEV7F9frWTD8-21" value="&lt;span style=&quot;font-size: 16px;&quot;&gt;M&lt;/span&gt;" style="text;html=1;align=center;verticalAlign=middle;resizable=0;points=[];autosize=1;strokeColor=none;fillColor=none;fontSize=16;" parent="1" vertex="1">
          <mxGeometry x="-1612" y="870" width="40" height="30" as="geometry" />
        </mxCell>
        <mxCell id="lx9NzaWwOEV7F9frWTD8-23" value="&lt;font style=&quot;font-size: 16px;&quot;&gt;1&lt;/font&gt;" style="text;html=1;align=center;verticalAlign=middle;resizable=0;points=[];autosize=1;strokeColor=none;fillColor=none;fontSize=16;" parent="1" vertex="1">
          <mxGeometry x="-1541.5" y="393" width="30" height="30" as="geometry" />
        </mxCell>
        <mxCell id="lx9NzaWwOEV7F9frWTD8-25" value="&lt;font style=&quot;font-size: 16px;&quot;&gt;M&lt;/font&gt;" style="text;html=1;align=center;verticalAlign=middle;resizable=0;points=[];autosize=1;strokeColor=none;fillColor=none;fontSize=16;" parent="1" vertex="1">
          <mxGeometry x="-1643" y="1172.5" width="40" height="30" as="geometry" />
        </mxCell>
        <mxCell id="lx9NzaWwOEV7F9frWTD8-26" value="&lt;font style=&quot;font-size: 16px;&quot;&gt;M&lt;/font&gt;" style="text;html=1;align=center;verticalAlign=middle;resizable=0;points=[];autosize=1;strokeColor=none;fillColor=none;fontSize=16;" parent="1" vertex="1">
          <mxGeometry x="-1600" y="1172.5" width="40" height="30" as="geometry" />
        </mxCell>
        <mxCell id="lx9NzaWwOEV7F9frWTD8-28" value="&lt;font style=&quot;font-size: 16px;&quot;&gt;M&lt;/font&gt;" style="text;html=1;align=center;verticalAlign=middle;resizable=0;points=[];autosize=1;strokeColor=none;fillColor=none;fontSize=16;" parent="1" vertex="1">
          <mxGeometry x="-1517.5" y="319" width="40" height="30" as="geometry" />
        </mxCell>
        <mxCell id="nTEsA57M8pN7EXXzLKuk-1" value="Salary" style="ellipse;whiteSpace=wrap;html=1;align=center;fontSize=16;fillColor=#FFF2CC;strokeColor=#000000;" vertex="1" parent="1">
          <mxGeometry x="-1426" y="-13" width="90" height="40" as="geometry" />
        </mxCell>
      </root>
    </mxGraphModel>
  </diagram>
</mxfile>
